<svg width="236" height="197" viewBox="0 0 236 197" fill="none" xmlns="http://www.w3.org/2000/svg">
    <path d="M177.547 26.5369C139.907 -7.74026 87.5418 -9.14085 49.3386 24.2566C29.1434 41.9117 13.4869 68.9225 16.3355 110.049C17.3423 124.596 20.1443 136.531 24.2324 146.3C40.7903 185.905 108.798 184.38 112.575 184.374C115.021 184.371 117.468 184.436 119.915 184.568C128.486 185.032 137.012 186.306 145.411 188.376C157.386 191.325 172.631 192.806 186.252 187.221C188.566 186.277 190.815 185.122 192.978 183.766C200.464 179.067 208.843 174.575 213.742 163.428C217.423 155.062 220.105 144.572 221.396 131.507C226.094 83.924 202.619 49.369 177.547 26.5369Z" fill="#B1BCFF"/>
    <path d="M120.5 197C179.871 197 228 191.627 228 185C228 178.373 179.871 173 120.5 173C61.1294 173 13 178.373 13 185C13 191.627 61.1294 197 120.5 197Z" fill="#3F3D56"/>
    <path opacity="0.1" d="M115 191C170.228 191 215 188.314 215 185C215 181.686 170.228 179 115 179C59.7715 179 15 181.686 15 185C15 188.314 59.7715 191 115 191Z" fill="black"/>
    <path d="M170.854 25V38.4389H156V185H187V44.0176V38.4389V25H170.854Z" fill="#575A89"/>
    <path d="M89.0981 115.812V93H70.1176V115.812H63V185H96V115.812H89.0981Z" fill="#575A89"/>
    <path d="M92 152H67V185H92V152Z" fill="#3F3D56"/>
    <path opacity="0.1" d="M71 152H67V185H71V152Z" fill="black"/>
    <path d="M145.032 18V25.8202H107.183V18H96V185H156V18H145.032Z" fill="#3F3D56"/>
    <path opacity="0.1" d="M153 18H145V26H153V18Z" fill="black"/>
    <path opacity="0.1" d="M104 18H96V185H104V18Z" fill="black"/>
    <path d="M53.3362 66.2751V60H47.8741V66.2751H38V185H63V66.2751H53.3362Z" fill="#3F3D56"/>
    <path opacity="0.1" d="M51 60H48V66H51V60Z" fill="black"/>
    <path opacity="0.1" d="M41 66H38V185H41V66Z" fill="black"/>
    <path opacity="0.1" d="M153 83H145V185H153V83Z" fill="black"/>
    <path opacity="0.1" d="M63 66H55V88H63V66Z" fill="black"/>
    <path d="M117 39H105V45H117V39Z" fill="#FF6584"/>
    <path d="M142 101H131V107H142V101Z" fill="#FF6584"/>
    <path d="M117 145H105V151H117V145Z" fill="#FF6584"/>
    <path d="M57 93H45V99H57V93Z" fill="#FF6584"/>
    <path d="M86 156H74V162H86V156Z" fill="#FF6584"/>
    <path opacity="0.1" d="M90 120H70V130H90V120Z" fill="black"/>
    <path opacity="0.1" d="M179 51H160V61H179V51Z" fill="black"/>
    <path opacity="0.1" d="M179 72H160V82H179V72Z" fill="black"/>
    <path opacity="0.1" d="M179 94H160V103H179V94Z" fill="black"/>
    <path opacity="0.1" d="M179 114H160V124H179V114Z" fill="black"/>
    <path opacity="0.1" d="M179 136H160V146H179V136Z" fill="black"/>
    <path opacity="0.1" d="M179 157H160V168H179V157Z" fill="black"/>
    <path d="M193.756 96.3679V69H178.462V96.3679H173V185H199V96.3679H193.756Z" fill="#3F3D56"/>
    <path opacity="0.1" d="M184 69H178V96H184V69Z" fill="black"/>
    <path opacity="0.1" d="M178 96H173V185H178V96Z" fill="black"/>
    <path opacity="0.1" d="M199 140H186V149H199V140Z" fill="black"/>
    <path d="M199 127H187V133H199V127Z" fill="#FF6584"/>
    <path d="M236 133.823C236 156.19 224.583 164 210.5 164C196.417 164 185 156.19 185 133.823C185 111.455 210.5 83 210.5 83C210.5 83 236 111.455 236 133.823Z" fill="#303F9F"/>
    <path d="M210.067 160.272L210.324 141.627L221 118.559L210.364 138.702L210.479 130.318L217.837 113.629L210.51 128.099L210.717 113.02L218.596 99.7337L210.75 110.649L210.879 83L210.065 119.603L210.132 118.093L202.121 103.611L210.004 120.991L209.257 137.832L209.235 137.385L200 122.145L209.207 138.964L209.113 141.07L209.097 141.101L209.105 141.274L207.211 184H209.741L210.045 161.931L219.229 145.154L210.067 160.272Z" fill="#3F3D56"/>
    <path d="M51 133.823C51 156.19 39.5833 164 25.5 164C11.4167 164 0 156.19 0 133.823C0 111.455 25.5 83 25.5 83C25.5 83 51 111.455 51 133.823Z" fill="#303F9F"/>
    <path d="M24.5466 161.038L24.8153 142.207L36 118.911L24.8577 139.253L24.9784 130.786L32.6866 113.932L25.0104 128.546V128.546L25.2277 113.318L33.4819 99.8994L25.2618 110.923L25.3977 83L24.5442 119.965L24.6144 118.44L16.2222 103.815L24.4798 121.367L23.698 138.375L23.6747 137.923L14 122.533L23.6454 139.518L23.5476 141.645L23.5301 141.677L23.538 141.851L21.5542 185H24.2048L24.5227 162.713L34.1445 145.77L24.5466 161.038Z" fill="#3F3D56"/>
</svg>
