<svg width="201" height="178" viewBox="0 0 201 178" fill="none" xmlns="http://www.w3.org/2000/svg">
    <g clip-path="url(#clip0_44_3917)">
        <path d="M134.302 38.9893C134.272 38.9949 134.228 39.0032 134.175 39.013C133.129 39.2054 126.805 40.2896 120.429 37.5908C117.728 36.4475 118.65 36.1626 112.634 32.1877C105.582 27.5276 103.772 27.5602 103.247 25.3873C102.198 21.0483 107.798 14.2274 111.504 14.6765C112.48 14.7948 113.525 15.4412 115.15 15.0029C115.507 14.9066 117.071 14.485 117.833 13.0471C118.512 11.7644 117.937 10.8391 118.21 9.7871C118.928 7.02574 124.91 5.64767 130.155 6.62135C133.172 7.18138 135.518 8.71028 140.087 11.7452C148.041 17.0276 152.017 19.6688 152.911 23.7155C153.758 27.5509 151.725 29.2036 153.204 33.3093C154.581 37.1323 156.767 36.8769 157.52 39.9695C158.731 44.9461 154.236 50.408 152.364 52.6832C150.311 55.1777 148.348 56.5468 145.742 58.3644C142.47 60.6457 140.835 61.7864 138.868 61.6703C135.303 61.4599 124.708 62.1762 124.57 58.8975C124.518 57.6687 111.668 58.6748 117.995 45.446C118.771 43.8235 133.975 45.5566 134.175 44.6245" fill="#2F2E41"/>
        <path d="M140.455 47.4545L151.383 65.5684L120.014 72.6179L122.012 49.9399L140.455 47.4545Z" fill="#FFB6B6"/>
        <path opacity="0.1" d="M140.455 47.4545L151.383 65.5684L120.014 72.6179L122.012 49.9399L140.455 47.4545Z" fill="black"/>
        <path d="M117.664 60.8688L151.499 59.3022L166.536 68.4404L165.831 127.186L181.573 160.344L102.157 143.635L108.266 118.57L105.447 65.8295L117.664 60.8688Z" fill="#303F9F"/>
        <path d="M0.911187 174.992C-0.168988 173.1 -0.296554 170.762 0.570015 168.739L13.4474 138.673C14.4084 136.429 16.4745 134.979 18.7108 134.979H181.362C183.536 134.979 185.514 136.308 186.524 138.448L200.326 167.685C201.281 169.706 201.218 172.08 200.159 174.035C199.099 175.99 197.241 177.163 195.188 177.172L5.85637 178H5.83267C3.82558 178 1.98698 176.877 0.911189 174.992H0.911187Z" fill="white"/>
        <path d="M0.911187 174.992C-0.168988 173.1 -0.296554 170.762 0.570015 168.739L13.4474 138.673C14.4084 136.429 16.4745 134.979 18.7108 134.979H181.362C183.536 134.979 185.514 136.308 186.524 138.448L200.326 167.685C201.281 169.706 201.218 172.08 200.159 174.035C199.099 175.99 197.241 177.163 195.188 177.172L5.85637 178H5.83267C3.82558 178 1.98698 176.877 0.911189 174.992H0.911187ZM18.7108 135.659C16.7092 135.659 14.8601 136.957 13.9999 138.965L1.1225 169.031C0.346852 170.842 0.460973 172.934 1.42782 174.628C2.39079 176.315 4.0362 177.32 5.83277 177.32H5.85398L195.185 176.492C197.023 176.484 198.686 175.434 199.634 173.684C200.582 171.934 200.639 169.81 199.785 168.001L185.982 138.763C185.078 136.849 183.308 135.659 181.362 135.659H18.7108H18.7108Z" fill="#3F3D56"/>
        <path d="M166.219 166.506L99.0971 161.378C98.1061 161.302 97.3157 160.56 97.0836 159.487C96.8514 158.413 97.2518 157.353 98.1036 156.785L112.946 146.889C113.323 146.638 113.755 146.515 114.194 146.539L172.253 149.472C173.021 149.51 173.706 149.976 174.087 150.718C174.468 151.459 174.48 152.352 174.12 153.106L168.339 165.197C167.951 166.009 167.19 166.512 166.372 166.512C166.321 166.512 166.27 166.51 166.219 166.506Z" fill="#3F3D56"/>
        <path d="M98.5146 158.386L165.36 163.477L170.647 150.815L113.33 148.317L98.5146 158.386Z" fill="white"/>
        <path d="M131.409 53.5562C142.503 53.5562 151.496 43.5627 151.496 31.235C151.496 18.9074 142.503 8.91388 131.409 8.91388C120.316 8.91388 111.322 18.9074 111.322 31.235C111.322 43.5627 120.316 53.5562 131.409 53.5562Z" fill="#FFB6B6"/>
        <path d="M137.879 32.6795C137.849 32.6851 137.805 32.6934 137.752 32.7032C136.706 32.8956 130.382 33.9798 124.006 31.281C121.305 30.1377 122.227 29.8527 116.211 25.8779C109.159 21.2178 107.349 21.2504 106.824 19.0775C105.775 14.7385 111.375 7.91761 115.081 8.3667C116.057 8.48494 117.102 9.13139 118.727 8.69306C119.084 8.59675 120.648 8.17518 121.41 6.73729C122.09 5.45459 121.514 4.52929 121.787 3.47729C122.505 0.715925 128.487 -0.662141 133.732 0.311537C136.749 0.871564 139.095 2.40046 143.664 5.43541C151.618 10.7178 155.594 13.359 156.488 17.4057C157.335 21.2411 155.302 22.8938 156.781 26.9995C158.158 30.8225 160.345 30.5671 161.097 33.6597C162.308 38.6363 157.813 44.0982 155.941 46.3734C153.888 48.8679 151.925 50.237 149.319 52.0545C146.047 54.3359 144.412 55.4765 142.445 55.3605C138.88 55.1501 135.333 51.5595 135.195 48.2809C135.143 47.0521 135.605 46.6836 136.746 42.4595C137.222 40.6996 137.552 39.2468 137.753 38.3147" fill="#2F2E41"/>
        <path d="M151.647 152.271C152.939 152.328 153.922 153.614 153.994 155.008C154.068 156.455 153.162 157.788 152.075 158.477C150.801 159.284 149.21 159.413 147.776 159.274C146.485 159.15 145.081 158.704 144.251 157.519C143.552 156.523 143.295 155.018 143.889 153.887C144.478 152.765 145.731 152.456 146.779 152.906C147.889 153.382 148.586 154.503 148.593 155.828C148.601 157.296 147.838 158.653 146.767 159.465C145.612 160.341 144.158 160.622 142.783 160.619C141.285 160.615 139.793 160.266 138.415 159.617C137.124 159.009 135.834 158.132 134.91 156.941C134.045 155.825 133.527 154.275 134.007 152.827C134.401 151.639 135.397 150.911 136.537 151.012C137.581 151.104 138.637 151.777 139.1 152.849C139.623 154.058 139.388 155.509 138.723 156.59C137.954 157.838 136.74 158.539 135.392 158.641C133.957 158.749 132.536 158.182 131.355 157.306C130.262 156.495 129.302 155.457 128.128 154.782C127.563 154.457 126.949 154.251 126.309 154.252C125.495 154.253 124.712 154.55 123.921 154.722C123.249 154.869 122.558 154.954 121.895 154.715C121.329 154.511 120.798 154.138 120.441 153.602C120.104 153.095 119.985 152.459 120.176 151.857C120.326 151.385 121.008 151.588 120.856 152.066C120.506 153.166 121.706 153.975 122.546 154.076C123.184 154.153 123.841 153.948 124.456 153.788C125.097 153.622 125.752 153.452 126.414 153.47C128.761 153.534 130.313 155.763 132.205 156.973C134.195 158.244 137.108 158.333 138.326 155.806C138.769 154.888 138.86 153.668 138.252 152.811C137.746 152.096 136.846 151.669 136.031 151.807C135.007 151.981 134.497 153.065 134.534 154.143C134.58 155.461 135.407 156.532 136.289 157.322C138.252 159.08 140.856 159.976 143.367 159.819C144.546 159.745 145.798 159.404 146.713 158.532C147.504 157.779 148.044 156.554 147.854 155.381C147.69 154.365 146.923 153.595 145.997 153.493C145.05 153.388 144.31 154.136 144.267 155.187C144.22 156.37 144.852 157.357 145.768 157.895C146.806 158.506 148.064 158.581 149.215 158.515C150.436 158.444 151.709 158.086 152.563 157.053C153.292 156.172 153.569 154.864 152.897 153.844C152.6 153.394 152.155 153.076 151.647 153.054C151.195 153.034 151.192 152.251 151.647 152.271Z" fill="#303F9F"/>
        <path d="M119.522 151.432L119.881 148.962L139.823 106.608C140.153 105.907 140.936 105.635 141.567 106.002C142.199 106.369 142.443 107.238 142.113 107.94L122.18 150.275L120.55 152.03C120.358 152.236 120.08 152.281 119.842 152.143C119.605 152.005 119.479 151.726 119.522 151.432H119.522Z" fill="#3F3D56"/>
        <path d="M133.115 124.485C135.365 124.956 137.481 126.019 139.285 127.584L139.387 127.608L139.407 127.496L161.141 131.279L159.567 99.1553L176.038 89.1302L172.145 143.43C171.302 146.898 168.063 148.923 164.958 147.924L137.292 139.081L137.361 138.703L137.264 138.674C135.053 139.337 132.731 139.401 130.493 138.862C124.878 137.599 120.913 133.357 121.637 129.386C122.361 125.416 127.498 123.221 133.115 124.485V124.485Z" fill="#FFB6B6"/>
        <path d="M147.974 74.1844L166.535 68.4404C166.535 68.4404 176.286 76.4037 177.461 85.0197C177.601 86.0444 177.988 133.777 177.578 135.019C174.542 144.214 157.842 129.536 157.842 129.536L147.974 74.1844Z" fill="#303F9F"/>
        <path d="M67.4614 159.976L65.5372 158.143H65.537C65.2506 157.87 64.9023 157.689 64.5297 157.62L21.6538 149.679C20.6752 149.498 19.9523 148.713 19.7672 147.63C19.5821 146.547 19.9956 145.521 20.8464 144.954L36.1426 134.756C36.6538 134.415 37.2554 134.307 37.8374 134.454L92.2006 148.102C93.2574 148.367 93.9628 149.316 93.9974 150.519C94.0321 151.723 93.3827 152.72 92.3431 153.06L69.613 160.489C69.3973 160.559 69.1774 160.594 68.9593 160.594C68.4168 160.594 67.8858 160.38 67.4614 159.976Z" fill="#3F3D56"/>
        <path d="M46.8141 100.75C48.9393 101.696 50.8299 103.194 52.3275 105.118L52.4229 105.163L52.4626 105.058L73.1265 113.445L95.1897 73.7478L107.387 82.1479L81.8052 127.733C80.3738 130.954 76.8436 132.244 73.9712 130.596L48.3687 115.969L48.5024 115.612L48.4125 115.563C46.1278 115.738 43.8387 115.301 41.7369 114.291C36.4483 111.844 33.2976 106.829 34.6993 103.089C36.1011 99.3494 41.5239 98.302 46.8141 100.75L46.8141 100.75Z" fill="#FFB6B6"/>
        <path d="M118.858 80.9143L109.099 64.698C109.099 64.698 97.4865 67.2522 92.7028 74.1574C92.1048 75.0206 71.5651 108.123 71.4328 109.567C70.5065 119.679 94.1132 124.418 94.1132 124.418L118.858 80.9143Z" fill="#303F9F"/>
        <path d="M66.4001 160.463L17.2511 152.914C15.6062 152.662 14.2485 151.352 13.7921 149.578L2.5039 105.675C2.1214 104.187 2.40696 102.646 3.28736 101.447C4.16777 100.248 5.46853 99.6288 6.85752 99.7466L56.3751 103.962C58.1666 104.115 59.6704 105.517 60.1175 107.45L71.037 154.686C71.3854 156.194 71.037 157.787 70.1047 158.948C69.302 159.949 68.1637 160.507 66.9771 160.507C66.7857 160.507 66.5929 160.493 66.4001 160.463Z" fill="#3F3D56"/>
        <path d="M55.4448 70.5377C55.732 70.8889 56.7745 70.5311 58.8479 69.8013C60.424 69.2465 60.6667 69.0446 60.8166 68.8999C61.3437 68.3911 61.4818 67.856 62.0039 65.4921C62.9408 61.2493 62.9698 60.828 63.451 59.9276C63.6166 59.6176 64.0351 58.878 63.9331 58.7864C63.8282 58.6922 63.3753 59.4626 62.5382 59.7537C61.7223 60.0374 61.3551 59.5829 60.6586 59.6987C59.7582 59.8483 59.2228 60.7987 58.3831 62.337C57.6395 63.6993 57.546 64.2473 56.5034 66.954C56.208 67.7208 55.9702 68.3142 55.7876 68.7833C53.7407 70.9062 51.7105 73.0572 49.6988 75.2268C49.7376 75.1609 49.7741 75.0988 49.8058 75.0447C50.6968 73.5244 50.8179 72.7094 50.805 72.0986C50.7841 71.1092 50.3588 70.3555 49.5091 68.8886C48.6765 67.4511 47.8876 66.5026 46.9371 65.3707C45.6911 63.8871 45.0681 63.1452 44.8201 63.194C43.0481 63.5425 42.5742 76.9502 44.8037 79.348C44.4908 79.5965 44.2316 79.8567 44.0442 80.1127C42.1357 77.758 38.8663 75.1272 35.2445 74.8034C33.0117 74.6036 31.7794 75.3822 31.3962 75.6497C29.6252 76.8858 28.5721 79.3598 29.101 80.0579C29.5942 80.7088 31.0185 79.229 33.81 79.3105C35.7578 79.3674 37.2793 80.1526 38.1826 80.6188C40.0775 81.5967 40.7705 82.5581 42.1676 83.2168C41.5127 83.8165 40.9938 84.565 40.668 85.2631C40.5551 85.3923 40.4426 85.5223 40.3299 85.6517C38.8883 84.749 37.265 84.0868 35.5635 83.9346C33.3306 83.7349 32.0983 84.5135 31.7151 84.781C30.5215 85.6141 29.6565 87.008 29.3797 88.0431C29.1988 88.0835 29.0313 88.1296 28.878 88.1794C28.3369 86.8205 26.7267 85.3875 25.2295 84.6654C22.6522 83.4222 19.3044 83.7517 18.9462 84.9339C18.9347 84.9715 18.9319 85.0087 18.9268 85.046C19.2093 82.513 19.5929 79.9977 20.0722 77.5007C20.0884 77.5719 20.1089 77.6441 20.136 77.7199C20.7723 79.4956 22.4914 81.1999 24.8348 82.0841C26.674 82.778 27.4444 82.4184 27.6401 82.3179C27.827 82.2219 28.6345 81.8368 28.8323 81.071C29.1991 79.6512 26.9529 75.4553 25.5361 76.8627C20.984 81.3846 20.3593 77.723 20.1502 77.1067C20.5372 75.1326 20.9827 73.1698 21.4823 71.2182C21.491 71.2301 21.4984 71.2418 21.5074 71.2539C22.5019 72.5942 24.4159 73.5385 26.6651 73.5802C28.4304 73.6129 29.0072 73.0638 29.1514 72.9164C29.2892 72.7756 29.8917 72.1931 29.8714 71.4692C29.8339 70.1272 27.6855 69.0343 25.9666 68.8448C24.3826 68.6701 22.6769 69.209 21.8308 69.8915C22.2242 68.43 22.6473 66.9748 23.0987 65.526C24.2548 66.0507 25.8923 65.9801 27.501 65.1811C28.8276 64.5221 29.0856 63.8894 29.1469 63.7237C29.2055 63.5653 29.4721 62.8977 29.2301 62.3658C28.7814 61.3796 26.8368 61.3963 25.4956 61.9204C24.9432 62.1363 24.4182 62.4683 23.9682 62.8438C24.7682 60.4691 25.6401 58.1113 26.5779 55.7709L25.6381 55.5098C24.4401 58.4995 23.3956 61.5282 22.498 64.5904C22.3864 63.6924 22.1067 62.7356 21.7384 61.9583C20.6555 59.6728 18.3425 57.9581 17.5603 58.5144C17.4038 58.6257 17.338 58.807 17.2784 59.0227C16.799 60.759 17.1601 63.1585 18.4228 65.3631C19.4139 67.0934 20.1772 67.3363 20.376 67.3913C20.544 67.4377 21.1921 67.6365 21.7248 67.3804C21.3665 68.7446 21.0353 70.1147 20.7332 71.491C20.3697 70.4881 19.6533 69.4195 18.8957 68.6806C17.1488 66.9767 14.4368 66.2949 13.8854 67.1253C13.7752 67.2914 13.772 67.4868 13.7859 67.712C13.897 69.524 15.0066 71.6212 16.8955 73.178C18.378 74.3999 19.169 74.3233 19.3724 74.2956C19.4921 74.2793 19.8538 74.2392 20.2026 74.064C19.8788 75.7362 19.5959 77.4165 19.3513 79.1039C18.8621 77.2162 17.2003 74.8613 15.632 75.6105C12.8491 76.94 9.57771 74.8979 9.21764 75.7908C9.12397 76.0232 9.20152 76.2628 9.29118 76.5227C10.0122 78.6147 12.0035 80.6417 14.7377 81.718C16.8836 82.5628 17.7915 82.1545 18.0222 82.0401C18.1751 81.9642 18.6798 81.7299 19.0557 81.2952C18.7854 83.4634 18.5783 85.6427 18.4324 87.8314C17.8522 86.4236 16.2179 84.9405 14.6879 84.1758C12.0041 82.8344 8.49395 83.1282 8.10411 84.3608C8.02615 84.6074 8.08765 84.8452 8.1796 85.1121C8.9197 87.2593 10.9635 89.3397 13.7699 90.4445C15.9725 91.3116 16.9043 90.8925 17.1412 90.7751C17.3142 90.6893 17.9253 90.4056 18.3149 89.8668C18.265 90.8787 18.2265 91.8922 18.2021 92.9076C18.1952 93.1969 18.1911 93.4861 18.186 93.7753C18.1544 93.8321 18.1269 93.8902 18.1085 93.951C18.0333 94.1991 18.0845 94.4378 18.1727 94.6985C18.1708 94.8822 18.1698 95.0659 18.1687 95.2495C17.6776 94.7549 17.0919 94.0112 16.3874 92.9515C15.7517 91.9953 15.148 92.6969 14.7602 93.5111C14.1523 93.3606 13.5724 93.4537 13.1164 93.9271C10.0582 97.1017 6.62811 95.4175 6.57958 96.364C6.56558 96.6371 6.69723 96.8543 6.86318 97.0899C8.19848 98.9854 10.8198 100.368 13.9341 100.514C16.3783 100.628 17.1946 99.8902 17.399 99.6917C17.4708 99.622 17.6318 99.4714 17.8061 99.2597C17.9461 99.3839 18.0823 99.4966 18.219 99.5994C18.2727 101.417 18.3689 103.232 18.5115 105.044C18.3956 105.055 18.2847 105.076 18.2021 105.086C17.0182 105.22 16.6193 103.445 14.8308 102.796C14.2369 102.581 13.0927 102.346 12.4897 102.796C12.4028 102.861 12.1066 103.105 11.6469 103.317C11.3751 103.442 11.1675 103.5 11.085 103.525C10.3512 103.748 9.67156 104.36 9.21208 104.773C8.34831 105.551 7.91648 105.94 7.7137 106.647C7.64992 106.869 7.47043 107.494 7.7137 108.103C7.82866 108.391 8.09545 108.819 9.11841 109.248C9.7264 109.503 11.4997 110.246 13.6134 109.456C14.0948 109.276 13.7273 109.341 15.58 108.312C17.0376 107.502 17.8901 107.115 18.0148 106.334C18.0587 106.06 18.0145 105.725 18.2021 105.606C18.3064 105.539 18.4325 105.572 18.5583 105.622C18.681 107.079 18.8341 108.533 19.0198 109.984H17.3519C15.1372 109.984 13.1504 111.354 12.167 113.559L5.92825 127.545C5.5344 128.428 5.32617 129.415 5.32617 130.401V166.364C5.32617 169.91 7.92222 172.795 11.1132 172.795H25.6752C28.8662 172.795 31.4622 169.91 31.4622 166.364V133.249C31.4622 132.442 31.3277 131.651 31.0622 130.899L25.1164 114.065C24.3952 112.024 22.8334 110.58 20.9663 110.133C21.5652 109.344 22.165 108.556 22.7695 107.77C23.5306 108.178 24.3678 108.513 25.268 108.748C27.6495 109.37 28.576 108.815 28.8104 108.663C29.0342 108.517 30.0044 107.926 30.1689 106.939C30.1865 106.833 30.1933 106.726 30.1921 106.619C32.6315 108.822 33.9039 109.908 34.8337 109.546C35.633 109.235 36.0893 108.215 36.3506 107.299C36.6235 107.341 36.9129 107.384 37.2213 107.43C40.5623 107.926 42.2459 108.156 42.8899 107.276C43.7812 106.059 42.9352 103.713 42.702 103.066C42.1952 101.66 41.4156 100.805 40.9313 100.285C40.3024 99.6089 38.51 97.6831 35.6882 97.4263C35.0747 97.3704 34.5236 97.4133 33.9622 97.5438C33.7666 97.345 33.5602 97.1502 33.3328 96.9651C32.8997 96.6125 32.4719 96.3514 32.0115 96.1473C32.7178 95.2875 33.426 94.4303 34.1375 93.5767C34.2502 93.6336 34.3571 93.6886 34.4554 93.7394C36.7864 94.9424 37.2985 96.1205 39.5402 96.7406C40.5572 97.022 41.7086 97.3405 41.9936 96.8616C42.5 96.0109 40.3506 92.5103 37.0292 90.1418C37.2531 89.8783 37.4777 89.6157 37.7021 89.3529C38.0059 89.4944 38.2734 89.6324 38.5015 89.7501C40.8325 90.9531 41.3446 92.1312 43.5863 92.7514C44.6033 93.0327 45.7547 93.3512 46.0398 92.8723C46.4916 92.1132 44.8291 89.2437 42.1064 86.9516C42.8543 86.6877 43.846 86.3952 45.1302 86.4327C47.078 86.4896 48.5995 87.2748 49.5028 87.741C51.8338 88.9441 52.3459 90.1221 54.5876 90.7423C55.6046 91.0236 56.756 91.3422 57.041 90.8633C57.7938 89.5985 52.6808 82.4726 46.5647 81.9256C46.09 81.8831 45.6632 81.8867 45.2774 81.9184C45.2241 81.8202 45.1662 81.7195 45.1053 81.617C47.1746 81.6909 51.216 81.0335 54.6558 83.7171C55.6477 84.4909 57.5745 86.3112 60.7992 87.8067C61.8298 88.2847 62.3481 88.5197 62.4908 88.3235C63.0017 87.6209 58.7533 81.8386 52.7763 78.99C50.4065 77.8606 48.9423 77.7538 47.9009 77.9249C48.0614 77.7215 48.2178 77.5117 48.3684 77.3009C50.6958 74.7644 53.0526 72.2544 55.4305 69.7782C55.3153 70.1737 55.3192 70.3842 55.4448 70.5377ZM25.5774 102.108C22.9487 101.162 19.7655 101.67 18.9354 102.746C18.8184 101.792 18.7167 100.837 18.6329 99.8805C19.8305 100.624 21.0802 100.823 23.4507 101.175C24.4603 101.324 25.3163 101.449 26.0402 101.527C26.1375 101.82 26.2412 102.083 26.3615 102.336C26.3755 102.365 26.3904 102.393 26.4047 102.422L26.3837 102.448C26.1137 102.318 25.8432 102.203 25.5774 102.108H25.5774ZM18.5931 89.2961C18.6681 89.0197 18.6696 88.7253 18.6124 88.4219C18.6942 87.3225 18.7963 86.2266 18.9171 85.1339C18.914 85.3012 18.9617 85.4686 19.0268 85.65C19.7576 87.6896 21.7322 89.6472 24.4239 90.6628C24.926 90.8523 25.3568 90.9717 25.7278 91.0447C25.5645 91.3608 25.4395 91.6688 25.3566 91.9537C24.4389 91.1345 23.2577 90.5388 21.9175 91.1708C21.5528 91.3428 21.3363 91.9719 21.1483 92.7242C19.9101 92.748 18.8755 93.0351 18.3828 93.5207C18.3854 93.3181 18.3845 93.116 18.3894 92.9131C18.4172 91.7568 18.4684 90.6042 18.5407 89.4551C18.5605 89.4037 18.5782 89.3508 18.5931 89.2961H18.5931ZM18.3863 95.2437C18.4396 95.3651 18.4981 95.486 18.5588 95.6064C18.5037 95.5613 18.4473 95.5128 18.3895 95.4604C18.3879 95.3882 18.3875 95.3159 18.3863 95.2437ZM20.5002 110.044C20.3561 110.023 20.2106 110.007 20.0638 109.998C19.7249 108.129 19.4119 106.26 19.15 104.388C19.8388 105.603 20.963 106.715 22.3951 107.558C21.7596 108.385 21.1294 109.214 20.5002 110.044H20.5002ZM31.5954 95.9817C30.699 95.6618 29.647 95.5087 28.1911 95.3208C27.8221 94.7509 27.4418 94.3312 27.1606 94.0291C27.0083 93.8655 26.7746 93.541 26.4717 93.1613C27.2565 92.8814 28.4277 92.3827 30.0828 92.4311C31.5869 92.475 32.8353 92.953 33.7425 93.3832C33.0239 94.246 32.3088 95.1126 31.5954 95.9817ZM36.6761 89.897C35.7952 89.3054 34.8398 88.7989 33.8341 88.443C33.9318 88.442 34.0275 88.4388 34.1289 88.4418C35.3761 88.4782 36.4473 88.8133 37.2945 89.172C37.0883 89.4136 36.8819 89.6548 36.6761 89.897Z" fill="#8B9AF8"/>
    </g>
    <defs>
        <clipPath id="clip0_44_3917">
            <rect width="201" height="178" fill="white"/>
        </clipPath>
    </defs>
</svg>
