<svg width="228" height="254" viewBox="0 0 228 254" fill="none" xmlns="http://www.w3.org/2000/svg">
    <path d="M64.8965 57.2944C63.103 57.9576 61.2716 58.5198 59.4114 58.9782C56.9542 59.5595 55.5668 59.8289 53.1952 58.9355C53.1119 58.9041 53.0324 58.8731 52.9574 58.8425C48.4621 56.9873 44.6193 53.9036 41.897 49.9667C39.1746 46.0299 37.69 41.4098 37.6238 36.6687C37.6119 36.5061 37.6119 36.3351 37.6119 36.1683C37.6096 35.3648 37.6492 34.5616 37.7305 33.762C37.8344 32.6728 38.014 31.5916 38.2678 30.5258L38.2441 30.5216C36.324 28.6158 35.5851 26.0051 35.8301 23.3819C35.9979 21.6036 36.5794 19.8853 37.5307 18.3568C38.482 16.8282 39.7782 15.5291 41.3219 14.5575C43.7411 13.0811 46.4688 12.1465 49.3067 11.8217C50.0688 11.7364 50.8352 11.6933 51.6022 11.6924H58.8087C60.2971 11.3542 61.8091 11.1228 63.3325 11.0001H63.3444C77.8483 9.83245 89.2862 19.1657 88.2195 30.5216C88.2115 30.5341 88.1997 30.5466 88.1918 30.5591C87.8836 31.0471 87.611 31.51 87.37 31.952C87.1369 32.3649 86.9394 32.7611 86.7695 33.1364C85.4459 36.039 91.7358 81.0723 89.4798 81.7563C88.1957 82.1441 83.02 48.6335 83.9485 55.0058C85.118 63.0004 71.5783 54.8969 64.8965 57.2944Z" fill="#2F2E41"/>
    <path d="M86.6636 137.901L106.332 179.871L30.6727 172.196L46.4661 131.906L86.6636 137.901Z" fill="#FFB6B6"/>
    <path d="M125.758 221.165C112.699 225.499 98.937 227.336 85.1944 226.582L79.2185 216.919C79.2185 216.919 78.9683 220.518 78.595 226.019C72.0532 225.263 65.5967 223.899 59.31 221.943C47.3879 218.226 36.2121 212.467 24.8837 207.156C22.5892 193.519 21.7282 172.49 34.4138 160.249L102.694 172.723C102.694 172.723 113.649 180.893 110.718 183.819C107.788 186.741 107.334 186.288 109.259 188.208C111.185 190.128 115.346 192.694 115.388 194.373C115.405 195.028 120.075 206.915 125.758 221.165Z" fill="#2F2E41"/>
    <path d="M74.4353 57.7769L57.7951 58.918L47.04 69.1334L43.2733 69.7942C39.8875 70.3876 36.841 72.1815 34.7113 74.8359C32.5817 77.4903 31.5171 80.8205 31.7194 84.1952C32.4942 97.0978 34.2289 116.377 37.8547 122.631C43.4769 132.33 48.1206 129.287 43.4769 132.33C38.8331 135.373 35.7154 132.982 37.8547 137.791C39.994 142.6 34.9633 148.769 34.9633 148.769L32.9607 150.737L35.0847 151.593L102.765 160.249C102.765 160.249 96.913 134.386 100.573 128.033C104.233 121.68 113.106 102.475 105.187 94.9605L97.4432 68.1757L84.1234 64.3143L74.4353 57.7769Z" fill="#303F9F"/>
    <path d="M174.239 164.606C173.148 164.571 172.078 164.298 171.102 163.806C170.127 163.314 169.269 162.614 168.588 161.756C167.907 160.897 167.42 159.899 167.16 158.832C166.9 157.766 166.873 156.654 167.081 155.576L135.982 134.375L139.693 124.275L176.447 149.727C178.224 150.215 179.762 151.342 180.768 152.896C181.775 154.449 182.181 156.319 181.908 158.153C181.636 159.987 180.705 161.657 179.292 162.847C177.878 164.036 176.081 164.662 174.239 164.606V164.606Z" fill="#FFB6B6"/>
    <path d="M85.38 66.7353L80.7713 68.5423L105.356 116.087L156.251 150.438L163.587 138.16L124.846 105.025L109.335 75.5709C107.153 71.4257 103.496 68.2285 99.0717 66.5967C94.6475 64.9649 89.7696 65.0143 85.38 66.7353Z" fill="#303F9F"/>
    <path d="M64.9238 53.4163C74.2408 53.4163 81.7937 46.0953 81.7937 37.0643C81.7937 28.0334 74.2408 20.7124 64.9238 20.7124C55.6068 20.7124 48.0538 28.0334 48.0538 37.0643C48.0538 46.0953 55.6068 53.4163 64.9238 53.4163Z" fill="#FFB6B6"/>
    <path d="M79.7489 30.3318C79.4656 30.4773 79.1863 30.6112 78.903 30.7452C78.608 30.883 78.3129 31.0208 78.0139 31.1509C72.3291 33.658 67.6987 33.9374 64.8897 30.3318C64.8129 28.4349 64.374 26.5684 63.5954 24.8277C63.733 26.773 63.2061 28.708 62.0965 30.3318H56.4393C50.6129 34.0944 47.623 37.5507 51.6672 49.9024C51.9308 50.7139 53.7366 79.5434 54.2519 81.7596C45.4317 78.4678 37.8231 43.5179 37.6303 34.3087C37.6185 34.1594 37.6185 34.0025 37.6185 33.8494C37.6162 33.1117 37.6556 32.3744 37.7366 31.6409C37.8404 30.6394 38.0192 29.6467 38.2716 28.6706L38.248 28.6668C37.3506 27.8321 36.6659 26.8049 36.2486 25.6673C35.8313 24.5296 35.6928 23.3129 35.8442 22.1139C37.3239 20.229 39.1549 18.6319 41.2418 17.406C43.1394 16.5119 45.1174 15.7893 47.1508 15.2472C47.202 15.2357 47.2453 15.2242 47.2964 15.2128C47.918 15.0481 48.5553 14.8989 49.1927 14.7687C50.506 14.5008 51.834 14.3053 53.17 14.1831C53.2684 14.1793 53.3628 14.1716 53.4494 14.1716C53.9838 14.172 54.5083 14.3121 54.9679 14.5774C54.9719 14.5774 54.9719 14.5812 54.9797 14.5812C55.4214 14.8379 55.7876 15.201 56.0433 15.6354C56.2989 16.0698 56.4353 16.5609 56.4393 17.0615H62.7417C62.9738 17.0615 63.2059 17.0691 63.4381 17.0806C72.215 17.4213 79.2689 21.0728 79.7213 29.4668C79.741 29.7577 79.7489 30.0409 79.7489 30.3318Z" fill="#2F2E41"/>
    <path d="M42.9417 30.5236C49.1531 30.5236 54.1883 25.887 54.1883 20.1674C54.1883 14.4478 49.1531 9.81116 42.9417 9.81116C36.7304 9.81116 31.6951 14.4478 31.6951 20.1674C31.6951 25.887 36.7304 30.5236 42.9417 30.5236Z" fill="#2F2E41"/>
    <path d="M58.8184 14.6196C57.4907 20.4948 50.9402 24.0087 44.6735 22.5713C41.6641 21.8811 39.0728 20.1071 37.4696 17.6397C35.8663 15.1723 35.3826 12.2136 36.1247 9.41439C37.67 3.5854 45.2754 5.26584 50.2696 1.4627C57.3346 -3.9174 60.6089 6.69646 58.8184 14.6196Z" fill="#2F2E41"/>
    <path d="M33.9591 178.54C43.2788 140.667 61.7449 108.114 92.3271 82.6097C93.5107 80.6694 95.4183 79.2762 97.6313 78.7357C99.8444 78.1952 102.182 78.5516 104.132 79.7267L176.834 123.654C178.781 124.833 180.179 126.734 180.721 128.939C181.264 131.145 180.906 133.475 179.727 135.417C168.054 174.279 150.571 208.001 121.359 231.347C120.175 233.288 118.268 234.681 116.055 235.221C113.842 235.762 111.504 235.405 109.554 234.23L36.8524 190.303C34.9053 189.124 33.5072 187.223 32.9648 185.018C32.4224 182.812 32.78 180.483 33.9591 178.54V178.54Z" fill="#B1BCFF"/>
    <path opacity="0.2" d="M46.9555 191.314C44.9982 190.135 43.5928 188.234 43.0476 186.028C42.5024 183.823 42.8619 181.493 44.0472 179.55C53.4158 141.673 71.9789 109.117 102.722 83.6101C103.509 82.3399 104.621 81.2985 105.945 80.5913L104.507 79.7267C102.547 78.5516 100.197 78.1952 97.9723 78.7357C95.7476 79.2763 93.83 80.6695 92.6401 82.6099C61.8973 108.117 43.3343 140.673 33.9657 178.549C32.7804 180.493 32.4209 182.822 32.9661 185.028C33.5113 187.234 34.9168 189.135 36.8741 190.314L109.958 234.246C111.258 235.022 112.743 235.443 114.261 235.467C115.779 235.491 117.276 235.116 118.601 234.381L46.9555 191.314Z" fill="black"/>
    <path d="M131.87 170.669L83.4319 141.475C82.6624 141.01 82.1089 140.258 81.893 139.385C81.6771 138.512 81.8164 137.589 82.2805 136.818C82.7445 136.048 83.4953 135.493 84.3678 135.276C85.2404 135.059 86.1634 135.198 86.9342 135.661L135.372 164.855C136.14 165.321 136.691 166.072 136.906 166.944C137.121 167.817 136.981 168.738 136.518 169.508C136.054 170.277 135.305 170.832 134.433 171.049C133.562 171.267 132.64 171.13 131.87 170.669L131.87 170.669Z" fill="white"/>
    <path d="M103.259 131.429L92.6408 125.069C91.8713 124.611 91.3162 123.869 91.0976 123.004C90.879 122.14 91.0148 121.224 91.4751 120.459C91.9355 119.694 92.6827 119.143 93.5523 118.925C94.422 118.708 95.3429 118.843 96.1124 119.301L96.1307 119.312L106.749 125.671C107.514 126.133 108.064 126.877 108.278 127.741C108.493 128.604 108.354 129.517 107.892 130.279C107.43 131.041 106.683 131.59 105.814 131.805C104.946 132.021 104.027 131.885 103.259 131.429V131.429Z" fill="white"/>
    <path d="M124.618 183.751L75.2873 154.559C74.5027 154.095 73.9377 153.344 73.7166 152.471C73.4955 151.598 73.6363 150.674 74.108 149.903C74.5798 149.132 75.3439 148.577 76.2325 148.359C77.1211 148.141 78.0615 148.278 78.8471 148.741L78.8541 148.745L128.185 177.937C128.967 178.403 129.529 179.154 129.747 180.026C129.966 180.898 129.824 181.82 129.352 182.59C128.88 183.359 128.116 183.913 127.229 184.131C126.342 184.348 125.403 184.212 124.618 183.751L124.618 183.751Z" fill="white"/>
    <path d="M138.027 115.554C145.932 115.554 152.341 108.965 152.341 100.837C152.341 92.709 145.932 86.1201 138.027 86.1201C130.122 86.1201 123.713 92.709 123.713 100.837C123.713 108.965 130.122 115.554 138.027 115.554Z" fill="#3F3D56"/>
    <path d="M114 252.91C131.222 252.91 145.184 239.244 145.184 222.386C145.184 205.529 131.222 191.863 114 191.863C96.7777 191.863 82.8162 205.529 82.8162 222.386C82.8162 239.244 96.7777 252.91 114 252.91Z" fill="white"/>
    <path d="M114 254C107.832 254 101.803 252.178 96.6752 248.764C91.5471 245.35 87.5502 240.498 85.1899 234.821C82.8297 229.144 82.2121 222.897 83.4154 216.87C84.6186 210.844 87.5885 205.308 91.9496 200.963C96.3108 196.617 101.867 193.659 107.916 192.46C113.965 191.261 120.235 191.876 125.933 194.228C131.632 196.579 136.502 200.561 139.928 205.67C143.355 210.78 145.184 216.786 145.184 222.931C145.175 231.168 141.886 239.065 136.04 244.89C130.194 250.714 122.268 253.991 114 254V254ZM114 192.718C108.002 192.718 102.139 194.49 97.1519 197.81C92.1648 201.129 88.2779 205.848 85.9826 211.369C83.6873 216.89 83.0868 222.965 84.2569 228.826C85.4271 234.687 88.3154 240.07 92.5565 244.296C96.7977 248.521 102.201 251.399 108.084 252.565C113.967 253.73 120.064 253.132 125.605 250.845C131.147 248.558 135.883 244.686 139.215 239.717C142.547 234.748 144.326 228.907 144.326 222.931C144.317 214.921 141.119 207.241 135.434 201.577C129.748 195.913 122.04 192.727 114 192.718V192.718Z" fill="#3F3D56"/>
    <path d="M109.202 238.738C108.659 238.738 108.124 238.616 107.639 238.381C107.153 238.147 106.731 237.806 106.406 237.387L97.831 226.339C97.5551 225.984 97.3543 225.58 97.24 225.15C97.1257 224.72 97.1002 224.273 97.165 223.833C97.2298 223.394 97.3836 222.971 97.6175 222.589C97.8515 222.207 98.1611 221.873 98.5286 221.607C98.8961 221.341 99.3143 221.147 99.7593 221.037C100.204 220.927 100.667 220.903 101.122 220.966C101.577 221.029 102.014 221.178 102.409 221.404C102.804 221.63 103.15 221.93 103.425 222.285L109.035 229.512L123.442 208.629C123.697 208.26 124.024 207.943 124.406 207.696C124.787 207.449 125.216 207.277 125.666 207.19C126.116 207.103 126.579 207.103 127.03 207.189C127.48 207.275 127.909 207.446 128.291 207.692C128.673 207.938 129.001 208.254 129.256 208.623C129.512 208.992 129.69 209.405 129.78 209.84C129.87 210.275 129.87 210.723 129.781 211.159C129.692 211.594 129.515 212.008 129.26 212.377L112.111 237.234C111.801 237.683 111.384 238.054 110.895 238.316C110.405 238.578 109.858 238.722 109.299 238.737C109.267 238.738 109.235 238.738 109.202 238.738Z" fill="#303F9F"/>
    <path d="M212.185 68.7798C213.396 68.6766 214.319 67.9122 214.247 67.0725C214.175 66.2329 213.135 65.6358 211.924 65.739C210.713 65.8422 209.79 66.6066 209.862 67.4463C209.934 68.286 210.974 68.883 212.185 68.7798Z" fill="white"/>
    <path d="M225.808 64.1725C227.018 64.0693 227.942 63.3049 227.87 62.4652C227.798 61.6256 226.758 61.0285 225.547 61.1317C224.336 61.2349 223.413 61.9993 223.485 62.839C223.557 63.6787 224.597 64.2757 225.808 64.1725Z" fill="#3F3D56"/>
    <path d="M205.727 58.4181C206.938 58.3149 207.861 57.5505 207.789 56.7108C207.717 55.8712 206.677 55.2741 205.467 55.3773C204.256 55.4805 203.333 56.2449 203.405 57.0846C203.477 57.9243 204.517 58.5213 205.727 58.4181Z" fill="#FF6584"/>
    <path d="M200.013 55.0793C200.534 54.9619 200.819 54.2613 200.65 53.5145C200.481 52.7677 199.921 52.2575 199.4 52.3749C198.879 52.4922 198.594 53.1928 198.763 53.9396C198.932 54.6864 199.492 55.1967 200.013 55.0793Z" fill="#E6E6E6"/>
    <path d="M195.945 46.9738C196.466 46.8564 196.751 46.1559 196.582 45.4091C196.412 44.6622 195.853 44.152 195.332 44.2694C194.811 44.3868 194.525 45.0873 194.695 45.8341C194.864 46.581 195.423 47.0912 195.945 46.9738Z" fill="#3F3D56"/>
    <path d="M215.464 58.357C215.985 58.2396 216.271 57.539 216.101 56.7922C215.932 56.0454 215.372 55.5352 214.851 55.6526C214.33 55.77 214.045 56.4705 214.214 57.2173C214.384 57.9641 214.943 58.4744 215.464 58.357Z" fill="#E6E6E6"/>
    <path d="M209.514 63.2813C210.035 63.1639 210.321 62.4634 210.151 61.7165C209.982 60.9697 209.422 60.4595 208.901 60.5769C208.38 60.6943 208.095 61.3948 208.264 62.1416C208.433 62.8884 208.993 63.3987 209.514 63.2813Z" fill="#FF6584"/>
    <path d="M220.346 67.2922C220.868 67.1748 221.153 66.4742 220.984 65.7274C220.814 64.9806 220.255 64.4704 219.733 64.5878C219.212 64.7051 218.927 65.4057 219.096 66.1525C219.266 66.8993 219.825 67.4096 220.346 67.2922Z" fill="#3F3D56"/>
    <path d="M155.941 5.99319C156.148 5.17626 155.362 4.27276 154.184 3.97516C153.006 3.67756 151.883 4.09855 151.675 4.91548C151.467 5.73241 152.254 6.63591 153.432 6.93351C154.61 7.23111 155.733 6.81011 155.941 5.99319Z" fill="white"/>
    <path d="M141.556 5.90063C141.763 5.08371 140.977 4.18021 139.799 3.88261C138.621 3.585 137.497 4.006 137.29 4.82293C137.082 5.63985 137.869 6.54338 139.047 6.84098C140.225 7.13858 141.348 6.71756 141.556 5.90063Z" fill="#3F3D56"/>
    <path d="M158.64 17.891C158.848 17.0741 158.061 16.1706 156.883 15.873C155.705 15.5754 154.582 15.9964 154.374 16.8133C154.167 17.6302 154.953 18.5337 156.131 18.8313C157.309 19.1289 158.432 18.7079 158.64 17.891Z" fill="#FF6584"/>
    <path d="M161.993 22.3774C162.079 21.6165 161.717 20.9517 161.186 20.8925C160.655 20.8334 160.156 21.4023 160.071 22.1632C159.985 22.9241 160.347 23.5888 160.878 23.648C161.408 23.7071 161.908 23.1382 161.993 22.3774Z" fill="#E6E6E6"/>
    <path d="M163.176 31.3639C163.261 30.603 162.9 29.9383 162.369 29.8791C161.838 29.82 161.339 30.3888 161.253 31.1497C161.168 31.9106 161.529 32.5754 162.06 32.6346C162.591 32.6937 163.091 32.1248 163.176 31.3639Z" fill="#3F3D56"/>
    <path d="M148.47 14.2381C148.555 13.4772 148.194 12.8124 147.663 12.7533C147.132 12.6941 146.632 13.263 146.547 14.0239C146.461 14.7848 146.823 15.4496 147.354 15.5087C147.885 15.5678 148.384 14.999 148.47 14.2381Z" fill="#E6E6E6"/>
    <path d="M155.709 11.5269C155.794 10.766 155.433 10.1012 154.902 10.0421C154.371 9.98293 153.871 10.5518 153.786 11.3127C153.701 12.0736 154.062 12.7384 154.593 12.7975C155.124 12.8567 155.623 12.2878 155.709 11.5269Z" fill="#FF6584"/>
    <path d="M146.79 4.20206C146.876 3.44116 146.514 2.77639 145.983 2.71724C145.452 2.6581 144.953 3.22698 144.868 3.98787C144.782 4.74877 145.144 5.41355 145.675 5.47269C146.205 5.53184 146.705 4.96296 146.79 4.20206Z" fill="#3F3D56"/>
    <path d="M38.0936 179.266C37.0237 178.816 36.0618 178.134 35.2745 177.265C34.4871 176.397 33.8931 175.364 33.5334 174.237C33.1738 173.11 33.0571 171.917 33.1915 170.739C33.3259 169.561 33.7081 168.428 34.3118 167.417L11.2466 134.168L18.6461 125.365L45.7593 165.06C47.3436 166.228 48.4549 167.952 48.8825 169.905C49.3101 171.858 49.0244 173.903 48.0795 175.654C47.1346 177.405 45.5962 178.74 43.7557 179.406C41.9152 180.071 39.9006 180.022 38.0936 179.266H38.0936Z" fill="#FFB6B6"/>
    <path d="M38.7618 74.9298C37.5851 74.2303 36.2002 73.9775 34.8556 74.2166C33.5111 74.4558 32.2949 75.1713 31.4254 76.2348L0 120.639L29.1232 162.429L40.5192 150.063L22.7921 121.918L46.3516 99.2551C48.2876 94.9699 48.5833 90.112 47.1816 85.6195C45.7799 81.1269 42.7802 77.3185 38.7618 74.9298V74.9298Z" fill="#303F9F"/>
</svg>
