<svg width="217" height="233" viewBox="0 0 217 233" fill="none" xmlns="http://www.w3.org/2000/svg">
    <path d="M140.128 117.995C141.122 131.552 140.885 144.217 138.511 155.333L173.476 155.308L189.298 143.924C184.975 128.921 182.036 126.362 185.284 115.92L140.128 117.995V117.995Z" fill="#FFB6B6"/>
    <path d="M141.177 117.224C142.15 125.746 138.527 130.266 136.202 137.254L136.202 137.254C142.978 132.848 154.582 133.073 162.441 134.817L186.989 140.264C182.758 130.833 182.203 122.483 185.382 115.92L141.177 117.224V117.224Z" fill="#3F3D56"/>
    <path d="M188.313 139.104L199.683 169.474C203.369 179.318 204.883 189.955 204.105 200.542L201.719 233H167.557C167.557 233 165.821 225.052 167.122 225.495C168.424 225.937 165.402 223.792 166.913 221.877C168.424 219.962 166.387 212.79 166.387 212.79C166.387 212.79 164.209 221.003 161.045 233H123.505C126.67 210.864 130.047 184.255 128.273 182.43C125.207 179.277 128.38 180.252 131.561 177.186C134.742 174.125 133.811 171.716 132.135 169.928C130.464 168.145 132.82 167.446 134.304 165.846C135.785 164.247 139.481 144.905 139.481 144.905C139.506 144.924 140.752 145.026 140.777 145.04C141.628 145.959 146.854 147.798 159.067 147.798C169.7 147.798 185.901 140.428 187.913 139.33C188.177 139.183 188.313 139.104 188.313 139.104V139.104Z" fill="#2F2E41"/>
    <path d="M211.817 120.09L200.092 73.0293C199.047 68.8843 195.129 66.4149 191.291 67.4823H191.291C187.263 68.6025 184.925 73.1575 186.17 77.4601L199.731 125.94L206.826 155.775C204.875 157.397 203.895 160.181 204.545 162.927C205.413 166.597 208.86 168.809 212.244 167.868C215.628 166.927 217.668 163.189 216.8 159.519C216.483 158.179 215.82 157.036 214.944 156.168L211.817 120.09V120.09Z" fill="#FFB6B6"/>
    <path d="M111.355 110.449L147.22 80.3426C150.375 77.6785 150.986 72.7469 148.594 69.2647L148.594 69.2647C146.083 65.6104 141.276 65.0006 138.063 67.9289L101.687 100.448L78.8192 119.191C76.6767 117.838 73.9117 117.921 71.8054 119.643C68.9905 121.943 68.4186 126.298 70.5279 129.368C72.6372 132.438 76.6291 133.062 79.444 130.761C80.4716 129.921 81.1966 128.806 81.605 127.581L111.355 110.449V110.449Z" fill="#FFB6B6"/>
    <path d="M171.726 47.5273H154.993L147.806 60.7166L144.382 60.5139C140.848 60.3046 137.593 61.7089 135.223 64.1148C134.038 65.3177 135.228 68.4546 132.406 68.3982C129.045 68.331 124.906 75.5075 125.99 79.2357V99.4106C131.363 99.1979 135.917 89.9316 135.822 82.4453C135.822 82.4453 128.04 94.8429 138.909 101.782C138.909 101.782 136.97 124.942 138.909 124.802C140.847 124.661 141.807 126.005 139.195 127.167C134.477 129.267 140.563 131.806 141.14 132.425C141.525 132.838 141.718 133.045 141.718 133.045C147.706 120.003 170.348 138.719 189.054 143.741C191.18 142.017 192.036 138.191 188.187 134.94C184.568 131.883 189.576 125.19 190.922 126.25C192.236 127.285 185.498 118.299 186.491 114.042C187.483 109.785 188.971 111.381 187.483 109.785C185.995 108.188 193.786 99.9913 189.212 92.3197L192.871 108.025C190.403 108.508 190.213 109.434 190.969 111.332C191.23 111.989 192.62 112.218 192.65 114.985C192.679 117.751 194.272 113.986 193.476 115.639C192.679 117.293 194.321 116.15 194.816 116.376C200.841 118.479 205.784 116.562 210.206 112.708C210.496 111.841 213.255 108.732 211.303 109.574C209.351 110.415 209.396 108.695 211.511 108.409C213.626 108.122 211.245 106.965 211.11 106.172C210.86 104.704 210.203 103.223 208.069 103.996C206.926 96.2909 206.182 85.0954 202.464 81.3151C202.464 79.3516 200.445 67.1046 197.821 67.5614C195.197 68.0182 196.42 65.9339 195.571 65.2003C191.738 61.8916 186.123 59.7431 182.006 59.7431H181.127L171.726 47.5273H171.726Z" fill="#303F9F"/>
    <path d="M176.217 39.9628C164.543 43.3649 152.434 44.7701 147.486 52.1641C147.486 52.1641 153.45 39.71 147.329 39.7643C137.044 39.8555 148.4 18.7589 152.225 16.2184C158.599 11.9842 173.676 14.8715 173.676 14.8715L181.218 25.3516L176.217 39.9628V39.9628Z" fill="#2F2E41"/>
    <path d="M163.327 44.0498C172.571 44.0498 180.064 35.4864 180.064 24.9229C180.064 14.3594 172.571 5.79602 163.327 5.79602C154.084 5.79602 146.59 14.3594 146.59 24.9229C146.59 35.4864 154.084 44.0498 163.327 44.0498Z" fill="#FFB6B6"/>
    <path d="M171.751 20.1452L171.268 23.1841L160.07 21.1067C160.47 19.9734 160.464 18.6645 159.953 17.5749C159.759 18.759 159.29 19.8859 158.612 20.8363C151.808 21.7032 151.669 23.0301 147.538 20.1755C146.161 19.9201 145.237 18.5073 145.473 17.02V17.02C146.955 7.70288 149.713 -1.26131 158.369 0.146637C162.866 0.878167 166.627 3.55917 169.051 7.25522C171.408 10.8648 172.498 15.4471 171.751 20.1452V20.1452Z" fill="#2F2E41"/>
    <path d="M165.035 30.9027C166.629 21.024 160.399 11.6402 151.121 9.94343C149.984 9.73554 148.855 9.65439 147.745 9.68718C149.353 7.7413 151.584 6.40926 154.099 6.03059L168.168 5.79602C174.603 6.97286 185.488 7.0471 188.222 12.7993C190.745 18.0886 186.122 24.2103 188.202 29.7051C190.481 35.7269 188.843 40.9296 186.589 43.3412C183.98 46.1311 179.598 49.5727 175.976 49.1346C176.254 47.8803 176.154 46.541 175.604 45.3836C175.398 46.6109 174.959 47.7957 174.324 48.8405L148.256 56.801C150.745 55.9169 154.006 52.2433 156.998 47.804C158.768 45.1763 162.956 45.8324 161.811 39.5355C160.665 33.2386 164.691 33.0391 165.035 30.9027V30.9027Z" fill="#2F2E41"/>
    <path d="M116.136 126.353H9.67799C4.34157 126.353 0 121.611 0 115.783V32.5956C0 26.767 4.34157 22.0249 9.67799 22.0249H116.136C121.472 22.0249 125.814 26.767 125.814 32.5956V115.783C125.814 121.611 121.472 126.353 116.136 126.353V126.353Z" fill="white"/>
    <path d="M116.136 126.353H9.67799C4.34157 126.353 0 121.611 0 115.783V32.5956C0 26.767 4.34157 22.0249 9.67799 22.0249H116.136C121.472 22.0249 125.814 26.767 125.814 32.5956V115.783C125.814 121.611 121.472 126.353 116.136 126.353V126.353ZM57.5911 22.9441C26.2492 22.9441 0.841564 50.6954 0.841564 84.9284V115.783C0.841564 121.113 4.79777 125.434 9.67799 125.434H116.136C121.016 125.434 124.972 121.113 124.972 115.783V32.5956C124.972 27.2652 121.016 22.9441 116.136 22.9441H57.5911V22.9441Z" fill="#3F3D56"/>
    <path d="M36.7608 96.1094H19.8375C18.9043 96.1094 18.1451 95.291 18.1451 94.285C18.1451 93.279 18.9043 92.4606 19.8375 92.4606H36.7608C37.694 92.4606 38.4532 93.279 38.4532 94.285C38.4532 95.291 37.694 96.1094 36.7608 96.1094Z" fill="#B1BCFF"/>
    <path d="M73.5691 109.466H19.8375C18.9043 109.466 18.1451 108.647 18.1451 107.641C18.1451 106.635 18.9043 105.817 19.8375 105.817H73.5691C74.5022 105.817 75.2614 106.635 75.2614 107.641C75.2614 108.647 74.5022 109.466 73.5691 109.466Z" fill="#B1BCFF"/>
    <path d="M81.7026 97.1509C96.4234 97.1509 108.357 84.2859 108.357 68.4162C108.357 52.5464 96.4234 39.6814 81.7026 39.6814C66.9819 39.6814 55.0483 52.5464 55.0483 68.4162C55.0483 84.2859 66.9819 97.1509 81.7026 97.1509Z" fill="#303F9F"/>
    <path d="M76.2197 57.4404C75.8659 57.4404 75.5135 57.5451 75.1982 57.7529C74.6108 58.14 74.2601 58.8141 74.2601 59.5563V77.2761C74.2601 78.0183 74.6108 78.6924 75.1982 79.0795C75.7857 79.4664 76.502 79.4954 77.1147 79.1573L93.1557 70.2974C93.8235 69.9286 94.2223 69.2253 94.2223 68.4162C94.2223 67.6071 93.8235 66.9039 93.1557 66.535L77.1147 57.6751C76.8309 57.5184 76.5248 57.4404 76.2197 57.4404Z" fill="white"/>
</svg>
