<svg width="179" height="168" viewBox="0 0 179 168" fill="none" xmlns="http://www.w3.org/2000/svg">
<g clip-path="url(#clip0_34_3073)">
<path d="M17.2137 141.525L15.6372 135.707C12.8421 134.599 9.9823 133.639 7.07159 132.832L6.8726 135.535L6.06561 132.557C2.4558 131.591 0 131.166 0 131.166C0 131.166 3.31638 142.97 10.2745 151.994L18.3814 153.326L12.0834 154.176C12.9587 155.161 13.8993 156.094 14.8997 156.969C25.0207 165.76 36.2937 169.794 40.0785 165.978C43.8632 162.162 38.7267 151.943 28.6057 143.153C25.4681 140.428 21.5267 138.241 17.5812 136.519L17.2137 141.525Z" fill="#B1BCFF"/>
<path d="M32.2064 135.206L34.0707 129.463C32.2904 127.162 30.3729 124.957 28.3271 122.858L26.6632 125.076L27.6177 122.136C25.0605 119.564 23.193 118.013 23.193 118.013C23.193 118.013 19.5125 129.722 20.4834 140.812L26.6872 145.874L20.8254 143.555C21.0305 144.822 21.3206 146.076 21.6939 147.309C25.502 159.73 32.9242 168.635 38.2717 167.199C43.6193 165.764 44.8675 154.531 41.0594 142.11C39.879 138.26 37.7127 134.481 35.2863 131.099L32.2064 135.206Z" fill="#B1BCFF"/>
<path d="M124.906 39.7993H123.922V14.5907C123.922 12.6746 123.519 10.7773 122.735 9.00706C121.952 7.23684 120.803 5.62837 119.355 4.2735C117.907 2.91864 116.189 1.8439 114.297 1.11065C112.405 0.377397 110.377 0 108.33 0H51.2527C47.1173 0 43.1513 1.53723 40.2271 4.2735C37.3029 7.00978 35.6602 10.721 35.6602 14.5907V152.89C35.6602 154.806 36.0635 156.703 36.8471 158.473C37.6307 160.243 38.7792 161.852 40.2271 163.207C41.675 164.562 43.3939 165.636 45.2857 166.37C47.1774 167.103 49.205 167.48 51.2527 167.48H108.33C112.465 167.48 116.431 165.943 119.355 163.207C122.279 160.47 123.922 156.759 123.922 152.89V57.7433H124.905L124.906 39.7993Z" fill="#DEE3FF"/>
<path d="M108.958 3.79456H101.508C101.851 4.58063 101.982 5.4335 101.889 6.27801C101.797 7.12253 101.483 7.93277 100.977 8.63736C100.471 9.34194 99.7878 9.91925 98.9871 10.3184C98.1864 10.7176 97.2931 10.9263 96.3858 10.9263H63.687C62.7798 10.9262 61.8866 10.7174 61.0859 10.3182C60.2853 9.91906 59.6018 9.34175 59.0958 8.63717C58.5897 7.9326 58.2766 7.12238 58.1841 6.2779C58.0915 5.43342 58.2223 4.5806 58.5649 3.79456H51.6063C48.518 3.79456 45.5562 4.94254 43.3725 6.98597C41.1887 9.02939 39.9619 11.8009 39.9619 14.6907V152.789C39.9619 155.679 41.1887 158.45 43.3725 160.494C45.5562 162.537 48.518 163.685 51.6063 163.685H108.958C112.047 163.685 115.008 162.537 117.192 160.494C119.376 158.45 120.603 155.679 120.603 152.789V152.789V14.6905C120.603 11.8007 119.376 9.02927 117.192 6.98589C115.008 4.94251 112.046 3.79456 108.958 3.79456V3.79456Z" fill="white"/>
<path d="M105.046 100.543H52.5244V101.003H105.046V100.543Z" fill="#CCCCCC"/>
<path d="M54.1831 97.6688C55.0991 97.6688 55.8418 96.9739 55.8418 96.1167C55.8418 95.2595 55.0991 94.5646 54.1831 94.5646C53.267 94.5646 52.5244 95.2595 52.5244 96.1167C52.5244 96.9739 53.267 97.6688 54.1831 97.6688Z" fill="#303F9F"/>
<path d="M105.046 116.063H52.5244V116.523H105.046V116.063Z" fill="#CCCCCC"/>
<path d="M54.1831 113.189C55.0991 113.189 55.8418 112.494 55.8418 111.637C55.8418 110.78 55.0991 110.085 54.1831 110.085C53.267 110.085 52.5244 110.78 52.5244 111.637C52.5244 112.494 53.267 113.189 54.1831 113.189Z" fill="#303F9F"/>
<path d="M104.085 133.736H87.4867C87.2 133.736 86.9251 133.629 86.7224 133.44C86.5196 133.25 86.4056 132.993 86.4053 132.724V127.281C86.4056 127.012 86.5196 126.755 86.7224 126.565C86.9251 126.376 87.2 126.269 87.4867 126.269H104.085C104.372 126.269 104.647 126.376 104.849 126.565C105.052 126.755 105.166 127.012 105.166 127.281V132.724C105.166 132.993 105.052 133.25 104.849 133.44C104.647 133.629 104.372 133.736 104.085 133.736Z" fill="#303F9F"/>
<path d="M59.5932 97.6688C60.5093 97.6688 61.2519 96.9739 61.2519 96.1167C61.2519 95.2595 60.5093 94.5646 59.5932 94.5646C58.6772 94.5646 57.9346 95.2595 57.9346 96.1167C57.9346 96.9739 58.6772 97.6688 59.5932 97.6688Z" fill="#303F9F"/>
<path d="M65.0044 97.6688C65.9204 97.6688 66.663 96.9739 66.663 96.1167C66.663 95.2595 65.9204 94.5646 65.0044 94.5646C64.0883 94.5646 63.3457 95.2595 63.3457 96.1167C63.3457 96.9739 64.0883 97.6688 65.0044 97.6688Z" fill="#303F9F"/>
<path d="M59.5932 113.189C60.5093 113.189 61.2519 112.494 61.2519 111.637C61.2519 110.78 60.5093 110.085 59.5932 110.085C58.6772 110.085 57.9346 110.78 57.9346 111.637C57.9346 112.494 58.6772 113.189 59.5932 113.189Z" fill="#303F9F"/>
<path d="M65.0044 113.189C65.9204 113.189 66.663 112.494 66.663 111.637C66.663 110.78 65.9204 110.085 65.0044 110.085C64.0883 110.085 63.3457 110.78 63.3457 111.637C63.3457 112.494 64.0883 113.189 65.0044 113.189Z" fill="#303F9F"/>
<path d="M178.331 168H5.78673C5.41736 168 5.11816 167.877 5.11816 167.726C5.11816 167.575 5.41736 167.452 5.78673 167.452H178.331C178.7 167.452 179 167.575 179 167.726C179 167.877 178.7 168 178.331 168Z" fill="#3F3D56"/>
<path d="M135.701 110.068C135.819 110.119 135.933 110.178 136.04 110.245L146.819 105.941L147.204 103.284L151.511 103.259L151.256 109.353L137.03 112.873C137 112.966 136.964 113.057 136.922 113.145C136.716 113.556 136.386 113.9 135.971 114.136C135.557 114.371 135.077 114.487 134.593 114.468C134.109 114.449 133.641 114.297 133.249 114.03C132.857 113.764 132.558 113.395 132.389 112.969C132.22 112.544 132.19 112.082 132.301 111.64C132.412 111.199 132.66 110.798 133.014 110.488C133.368 110.178 133.812 109.973 134.29 109.898C134.768 109.824 135.259 109.883 135.701 110.068Z" fill="#FFB8B8"/>
<path d="M153.077 165.289H150.131L148.729 154.655L153.078 154.655L153.077 165.289Z" fill="#FFB8B8"/>
<path d="M148.027 164.501H153.709V167.849H144.449C144.449 166.961 144.826 166.109 145.497 165.482C146.168 164.854 147.078 164.501 148.027 164.501Z" fill="#2F2E41"/>
<path d="M164.536 164.51L161.604 164.78L159.095 154.326L163.422 153.927L164.536 164.51Z" fill="#FFB8B8"/>
<path d="M159.427 164.189L165.081 163.668L165.432 167L156.217 167.849C156.171 167.411 156.217 166.97 156.354 166.549C156.49 166.128 156.714 165.737 157.012 165.397C157.31 165.057 157.676 164.776 158.091 164.568C158.505 164.361 158.959 164.232 159.427 164.189Z" fill="#2F2E41"/>
<path d="M153.898 92.0048C157.157 92.0048 159.8 89.5319 159.8 86.4816C159.8 83.4312 157.157 80.9584 153.898 80.9584C150.638 80.9584 147.995 83.4312 147.995 86.4816C147.995 89.5319 150.638 92.0048 153.898 92.0048Z" fill="#FFB8B8"/>
<path d="M149.473 163.138C149.22 163.139 148.974 163.056 148.78 162.904C148.586 162.752 148.456 162.54 148.412 162.307C146.887 154.386 141.902 128.484 141.783 127.767C141.78 127.75 141.779 127.734 141.779 127.717V125.786C141.779 125.716 141.803 125.647 141.846 125.59L142.505 124.727C142.536 124.685 142.577 124.651 142.625 124.627C142.673 124.602 142.726 124.588 142.78 124.586C146.534 124.421 158.829 123.939 159.423 124.633C160.02 125.331 159.809 127.446 159.761 127.862L159.763 127.906L165.287 160.962C165.33 161.225 165.261 161.494 165.093 161.71C164.926 161.926 164.675 162.072 164.394 162.116L160.944 162.648C160.687 162.687 160.424 162.638 160.202 162.51C159.98 162.383 159.815 162.185 159.736 161.953C158.669 158.762 155.091 148.029 153.851 143.876C153.843 143.849 153.826 143.827 153.801 143.812C153.777 143.797 153.747 143.791 153.719 143.794C153.69 143.798 153.663 143.812 153.644 143.832C153.625 143.853 153.615 143.88 153.615 143.907C153.677 147.866 153.827 157.967 153.879 161.456L153.884 161.831C153.887 162.086 153.787 162.332 153.605 162.52C153.423 162.709 153.171 162.827 152.901 162.851L149.574 163.134C149.54 163.137 149.506 163.138 149.473 163.138Z" fill="#2F2E41"/>
<path d="M150.152 94.1765C149.122 94.7495 148.505 95.8025 148.152 96.8739C147.497 98.8576 147.102 100.909 146.978 102.981L146.604 109.188L141.977 125.642C145.987 128.818 148.301 128.096 153.699 125.499C159.098 122.901 159.715 126.365 159.715 126.365L160.795 112.364L162.337 97.0654C161.991 96.6752 161.599 96.3227 161.169 96.0143C159.743 94.9769 158.084 94.2558 156.318 93.9054C154.551 93.555 152.722 93.5844 150.969 93.9914L150.152 94.1765Z" fill="#303F9F"/>
<path d="M148.648 113.391C148.773 113.435 148.893 113.488 149.009 113.55L159.666 108.558L159.843 105.854L164.24 105.57L164.475 111.735L150.233 116.142C150.116 116.609 149.851 117.031 149.472 117.354C149.093 117.676 148.618 117.882 148.11 117.946C147.602 118.009 147.086 117.926 146.63 117.708C146.173 117.491 145.799 117.148 145.556 116.726C145.313 116.304 145.213 115.823 145.269 115.347C145.326 114.87 145.535 114.421 145.871 114.059C146.207 113.697 146.652 113.44 147.148 113.32C147.644 113.201 148.168 113.226 148.648 113.391Z" fill="#FFB8B8"/>
<path d="M162.26 97.1354C164.882 98.0014 165.344 107.384 165.344 107.384C162.259 105.796 158.557 108.394 158.557 108.394C158.557 108.394 157.786 105.94 156.861 102.765C156.581 101.872 156.548 100.927 156.763 100.019C156.979 99.1101 157.437 98.2674 158.094 97.569C158.094 97.569 159.638 96.2688 162.26 97.1354Z" fill="#303F9F"/>
<path d="M159.19 87.9422C158.454 87.3916 157.451 88.3924 157.451 88.3924L156.863 83.4375C156.863 83.4375 153.185 83.8497 150.832 83.3C148.479 82.7503 148.111 85.2958 148.111 85.2958C147.99 84.2676 147.965 83.2313 148.038 82.1991C148.185 80.9604 150.097 79.7216 153.48 78.8958C156.863 78.0699 158.627 81.6485 158.627 81.6485C160.981 82.7494 159.925 88.4928 159.19 87.9422Z" fill="#2F2E41"/>
<path d="M80.5 54C75.2617 54 71 49.2898 71 43.4999C71 37.7102 75.2617 33 80.5 33C85.7383 33 90 37.7102 90 43.4999C90 49.2898 85.7383 54 80.5 54ZM80.5 35.6531C76.6677 35.6531 73.5499 39.1731 73.5499 43.4999C73.5499 47.8267 76.6677 51.3469 80.5 51.3469C84.3323 51.3469 87.4501 47.8267 87.4501 43.4999C87.4501 39.1731 84.3323 35.6531 80.5 35.6531Z" fill="#303F9F"/>
<path d="M91.0091 73H69.9909C68.1375 72.9981 66.3605 72.3154 65.0499 71.1016C63.7393 69.8879 63.0021 68.2422 63 66.5257V47.4326C63.0014 46.2574 63.5061 45.1307 64.4034 44.2998C65.3007 43.4688 66.5172 43.0013 67.7862 43H93.2138C94.4828 43.0013 95.6993 43.4688 96.5966 44.2998C97.4939 45.1307 97.9986 46.2574 98 47.4326V66.5257C97.9979 68.2422 97.2607 69.8879 95.9501 71.1016C94.6395 72.3154 92.8625 72.9981 91.0091 73Z" fill="#3F3D56"/>
<path d="M85 53.7652C85.0006 53.0964 84.788 52.4396 84.384 51.8623C83.98 51.2851 83.3993 50.8083 82.7017 50.481C82.004 50.1538 81.2146 49.988 80.4149 50.0007C79.6151 50.0133 78.8338 50.204 78.1514 50.553C77.4691 50.9021 76.9104 51.3969 76.5328 51.9865C76.1552 52.5762 75.9725 53.2393 76.0034 53.9076C76.0342 54.5759 76.2776 55.2252 76.7085 55.7887C77.1393 56.3522 77.742 56.8095 78.4545 57.1135V63H82.5455V57.1135C83.284 56.7988 83.9041 56.3195 84.3373 55.7287C84.7705 55.1378 84.9998 54.4582 85 53.7652Z" fill="white"/>
</g>
<defs>
<clipPath id="clip0_34_3073">
<rect width="179" height="168" fill="white"/>
</clipPath>
</defs>
</svg>
