<svg width="179" height="168" viewBox="0 0 204 147" fill="none" xmlns="http://www.w3.org/2000/svg">
<g clip-path="url(#clip0_44_4011)">
<path d="M204 69.0159C204 74.8644 202.012 80.4974 198.431 84.789C194.851 89.0806 189.943 91.7145 184.688 92.1641C184.511 92.179 184.331 92.1939 184.151 92.2028V70.1678C184.152 69.9476 184.107 69.7301 184.022 69.5313C183.937 69.3325 183.812 69.1574 183.658 69.0189C183.64 68.9986 183.62 68.9806 183.599 68.9653C183.579 68.9478 183.559 68.9319 183.537 68.9177C183.349 68.7831 183.133 68.7031 182.909 68.6849C182.686 68.6667 182.462 68.7109 182.258 68.8135L182.035 68.2718C182.279 68.1488 182.543 68.0849 182.81 68.0843L167.532 53.4787C167.65 53.3298 167.774 53.184 167.897 53.0381C170.777 49.6689 174.502 47.3355 178.59 46.3395C182.677 45.3436 186.94 45.7308 190.828 47.4512C194.715 49.1715 198.048 52.146 200.396 55.9902C202.744 59.8345 204 64.3718 204 69.0159Z" fill="#B1BCFF"/>
<path d="M5.30527 84.8467C5.22929 84.4159 5.23935 83.9719 5.33473 83.5459C5.43012 83.1199 5.60851 82.7224 5.85734 82.3812C6.10618 82.04 6.4194 81.7634 6.77495 81.5711C7.13051 81.3788 7.51974 81.2753 7.91523 81.2679L19.9752 65.3368L22.9861 69.6086L10.6952 84.4352C10.6623 85.1733 10.3866 85.8724 9.92021 86.3999C9.45386 86.9275 8.82933 87.2469 8.16495 87.2976C7.50057 87.3483 6.8425 87.1268 6.31545 86.6751C5.78839 86.2234 5.42897 85.5728 5.30528 84.8467H5.30527Z" fill="#FFB8B8"/>
<path d="M62.5739 65.2383C62.4895 65.3737 62.4149 65.5164 62.3507 65.6649L49.1823 67.7537L47.1827 64.9366L42.957 67.7297L46.9292 74.6021L62.9893 69.3485C63.4131 69.7743 63.9436 70.0467 64.5104 70.1297C65.0772 70.2127 65.6533 70.1022 66.1621 69.813C66.6709 69.5238 67.0883 69.0695 67.3587 68.5106C67.6292 67.9518 67.74 67.3148 67.6763 66.6843C67.6126 66.0539 67.3774 65.4599 67.0021 64.9814C66.6268 64.5029 66.1291 64.1625 65.5752 64.0056C65.0213 63.8486 64.4375 63.8824 63.9014 64.1026C63.3653 64.3228 62.9022 64.7189 62.5739 65.2383Z" fill="#FFB8B8"/>
<path d="M40.0801 118.467L42.4104 121.042L52.4689 112.293L49.0297 108.493L40.0801 118.467Z" fill="#FFB8B8"/>
<path d="M44.75 128.409L37.4264 120.316L40.2438 117.176L44.7379 122.142C45.1094 122.553 45.4045 123.04 45.6062 123.578C45.8079 124.115 45.9123 124.691 45.9135 125.272C45.9146 125.854 45.8124 126.431 45.6128 126.969C45.4132 127.507 45.12 127.996 44.75 128.409L44.75 128.409Z" fill="#2F2E41"/>
<path d="M27.6929 143.163H30.9814L32.5457 129.088H27.6924L27.6929 143.163Z" fill="#FFB8B8"/>
<path d="M37.3232 146.551L26.9883 146.552L26.9881 142.121L33.33 142.12C33.8544 142.12 34.3736 142.235 34.8581 142.458C35.3426 142.68 35.7828 143.007 36.1536 143.418C36.5244 143.83 36.8185 144.318 37.0192 144.856C37.2199 145.393 37.3232 145.969 37.3232 146.551Z" fill="#2F2E41"/>
<path d="M26.9781 132.292L23.2325 101.638C22.6463 97.0057 22.8282 92.2932 23.7693 87.7332C24.5379 84.0686 25.5763 81.5301 26.8557 80.1888C27.0576 79.9785 27.3161 79.8475 27.5915 79.8159L39.9584 78.3863C40.1966 78.3593 40.4368 78.408 40.651 78.5268C40.8652 78.6456 41.0446 78.8295 41.1681 79.0572L41.5747 79.8089C41.624 79.9002 41.6638 79.9974 41.6933 80.0987L44.308 89.0937C44.347 89.2296 44.41 89.3555 44.4933 89.4642C44.5766 89.5728 44.6785 89.662 44.7931 89.7266C48.9098 92.0589 62.2823 99.9322 61.517 103.329C60.7979 106.521 54.0659 111.696 52.0197 113.206C51.8114 113.361 51.5659 113.442 51.3153 113.44C51.0647 113.438 50.8204 113.352 50.6142 113.194L47.2176 110.615C47.0518 110.489 46.9155 110.321 46.8202 110.125C46.725 109.929 46.6734 109.71 46.6699 109.487C46.6664 109.264 46.711 109.043 46.8001 108.843C46.8891 108.644 47.02 108.47 47.1817 108.338L49.524 106.423C49.6674 106.305 49.7792 106.147 49.8475 105.965C49.9157 105.782 49.9379 105.582 49.9115 105.387C49.8851 105.191 49.8111 105.008 49.6977 104.855C49.5842 104.703 49.4354 104.588 49.2674 104.523L36.688 99.6246C36.5468 99.5696 36.396 99.5512 36.2474 99.571C36.0988 99.5907 35.9562 99.648 35.8307 99.7385C35.7051 99.829 35.5999 99.9502 35.5232 100.093C35.4465 100.235 35.4002 100.396 35.3881 100.561L33.0687 132.019C33.0431 132.356 32.9083 132.672 32.6892 132.907C32.4701 133.143 32.1816 133.282 31.877 133.3L28.2883 133.499C28.2664 133.501 28.2448 133.501 28.2231 133.501C27.9185 133.502 27.624 133.38 27.3948 133.158C27.1655 132.935 27.0174 132.627 26.9781 132.292Z" fill="#2F2E41"/>
<path d="M32.6504 53.0068C36.2888 53.0068 39.2383 49.7337 39.2383 45.6962C39.2383 41.6587 36.2888 38.3856 32.6504 38.3856C29.012 38.3856 26.0625 41.6587 26.0625 45.6962C26.0625 49.7337 29.012 53.0068 32.6504 53.0068Z" fill="#FFB8B8"/>
<path d="M26.488 78.9365L21.6387 59.3022L21.7217 59.24C21.8259 59.1621 32.2781 51.5031 44.5156 57.6752L44.7375 57.8165L41.8641 78.1957C41.8014 78.6607 41.5944 79.087 41.2789 79.4008C40.9633 79.7147 40.559 79.8966 40.1355 79.915L28.3114 80.4197C28.2875 80.4206 28.2638 80.4213 28.2401 80.4213C27.8415 80.4223 27.4538 80.2773 27.137 80.0089C26.8202 79.7404 26.5921 79.3635 26.488 78.9365Z" fill="#B1BCFF"/>
<path d="M21.4547 72.0844L17.4159 66.9305C17.2214 66.6829 17.1119 66.367 17.1066 66.0386C17.1014 65.7101 17.2008 65.3902 17.3874 65.1351L21.6094 59.3473L24.8505 60.3283L26.5688 67.0021L23.4357 71.969C23.3265 72.1432 23.1826 72.2874 23.0153 72.3904C22.8479 72.4933 22.6615 72.5523 22.4704 72.5628C22.4478 72.564 22.4254 72.5646 22.4029 72.5646C22.223 72.565 22.0452 72.5223 21.8815 72.4394C21.7179 72.3566 21.5723 72.2355 21.4547 72.0844Z" fill="#B1BCFF"/>
<path d="M43.7878 71.0108C43.5967 71.0003 43.4103 70.9413 43.243 70.8383C43.0756 70.7354 42.9318 70.5912 42.8225 70.4169L39.6895 65.45L41.1964 58.4248L44.1806 57.5216L44.7374 57.8165L48.8709 63.583C49.0574 63.8381 49.1568 64.1581 49.1516 64.4865C49.1464 64.815 49.0369 65.1309 48.8423 65.3785L44.8036 70.5324C44.686 70.6834 44.5404 70.8045 44.3767 70.8874C44.2131 70.9703 44.0352 71.013 43.8553 71.0126C43.833 71.0126 43.8103 71.0119 43.7878 71.0108Z" fill="#B1BCFF"/>
<path d="M184.152 68.7094C184.154 68.7835 184.131 68.8559 184.087 68.9118C184.041 68.9718 183.975 69.0089 183.904 69.0151C183.833 69.0212 183.763 68.9958 183.709 68.9445L182.811 68.0843L167.532 53.4787L124.681 12.5073C124.436 12.2751 124.125 12.1477 123.803 12.1483C123.481 12.1488 123.17 12.2772 122.927 12.5103L65.2205 68.1439L64.7001 68.6439C64.6801 68.6635 64.6575 68.6796 64.6331 68.6915C64.5901 68.7126 64.5429 68.7208 64.4962 68.7153C64.4292 68.7074 64.3672 68.6725 64.3219 68.6171C64.2986 68.5878 64.2807 68.5537 64.2693 68.5168C64.2579 68.4798 64.2532 68.4407 64.2554 68.4017C64.2577 68.3627 64.2668 68.3246 64.2824 68.2896C64.2979 68.2545 64.3195 68.2232 64.346 68.1974L64.4184 68.126L122.575 12.0608C122.917 11.7351 123.352 11.5555 123.803 11.5544C124.253 11.5534 124.689 11.7308 125.032 12.0549L167.897 53.0382L184.058 68.4921C184.086 68.5192 184.109 68.5525 184.125 68.5899C184.141 68.6273 184.15 68.6679 184.152 68.7094Z" fill="#3F3D56"/>
<path d="M151.57 77.4989L150.864 75.3439L148.434 67.9027L143.198 51.8803L137.346 33.9707L126.791 1.66688C126.584 1.03693 126.16 0.523785 125.612 0.239824C125.065 -0.0441357 124.438 -0.0757708 123.87 0.151846L62.8458 24.7049C62.278 24.9346 61.8154 25.4049 61.5595 26.0125C61.3036 26.6201 61.2752 27.3155 61.4806 27.9463L76.4449 73.7426L76.6997 74.5254L92.407 82.425L96.822 84.6455L97.5381 85.0056L116.231 94.4083L116.955 94.1167L129.216 89.1846L147.71 81.7434L150.202 80.7403C150.77 80.5108 151.233 80.0408 151.489 79.4332C151.745 78.8257 151.774 78.1301 151.57 77.4989Z" fill="#B1BCFF"/>
<path d="M125.981 39.3523C125.677 38.4251 125.054 37.6698 124.248 37.2519C123.443 36.834 122.521 36.7876 121.684 37.1229L97.5386 46.8411L85.8789 51.5321C85.4646 51.6982 85.0839 51.9534 84.7585 52.2829C84.4331 52.6124 84.1695 53.0099 83.9826 53.4526C83.7957 53.8953 83.6893 54.3745 83.6694 54.8628C83.6496 55.3512 83.7166 55.8391 83.8668 56.2987C84.0169 56.7582 84.2472 57.1805 84.5445 57.5412C84.8418 57.902 85.2002 58.1941 85.5993 58.4011C85.9984 58.608 86.4304 58.7256 86.8705 58.7472C87.3106 58.7688 87.7502 58.6939 88.1642 58.5268L97.5386 54.7556L123.972 44.1206C124.808 43.7828 125.488 43.0911 125.865 42.1973C126.242 41.3034 126.283 40.2803 125.981 39.3523Z" fill="white"/>
<path d="M130.232 52.3655C129.928 51.4384 129.305 50.683 128.499 50.2651C127.694 49.8472 126.772 49.8008 125.935 50.1361L121.845 51.7821L97.5383 61.5628L90.13 64.5423C89.2945 64.8792 88.6138 65.5705 88.2374 66.4641C87.861 67.3577 87.8197 68.3806 88.1225 69.308C88.4254 70.2354 89.0477 70.9914 89.8526 71.4099C90.6575 71.8284 91.5792 71.8752 92.4152 71.54L97.5383 69.4773L128.223 57.1308C128.293 57.104 128.36 57.0713 128.427 57.0386C129.206 56.6592 129.826 55.9654 130.161 55.0976C130.497 54.2299 130.522 53.2532 130.232 52.3655Z" fill="white"/>
<path d="M134.529 65.5156C134.225 64.5887 133.603 63.8333 132.798 63.4154C131.992 62.9974 131.071 62.951 130.235 63.2862L118.763 67.9028L109.882 71.4775L97.5381 76.4423L94.4268 77.6954C93.7077 77.9861 93.0996 78.5405 92.7031 79.2668C92.3065 79.9932 92.1453 80.848 92.2461 81.6898C92.2768 81.9404 92.3307 82.1868 92.407 82.425L96.822 84.6455L97.5382 84.3568H97.5435L119.943 75.344L132.52 70.2839C133.356 69.9468 134.037 69.2553 134.414 68.3612C134.791 67.4671 134.832 66.4436 134.529 65.5156H134.529Z" fill="white"/>
<path d="M109.389 26.5593C109.085 25.6322 108.461 24.8769 107.656 24.459C106.85 24.041 105.928 23.9946 105.092 24.3299L91.2247 29.9078C90.3893 30.2448 89.7085 30.936 89.3321 31.8296C88.9557 32.7232 88.9144 33.7461 89.2173 34.6735C89.5201 35.6009 90.1424 36.3569 90.9473 36.7755C91.7522 37.194 92.674 37.2408 93.51 36.9056L97.8982 35.1405L100.803 33.9708L107.38 31.3247C108.215 30.9875 108.896 30.2964 109.273 29.403C109.649 28.5096 109.691 27.4869 109.389 26.5593Z" fill="white"/>
<path d="M164.729 33.9708H99.818C99.4352 33.9712 99.0586 34.0786 98.7229 34.283C98.3873 34.4874 98.1035 34.7823 97.8976 35.1405C97.6622 35.5461 97.5374 36.0184 97.5381 36.5008V85.0057L116.231 94.4084L118.865 95.7329L123.025 97.8254C123.269 97.9475 123.533 98.0107 123.8 98.0107C124.067 98.0107 124.332 97.9475 124.575 97.8254L128.735 95.7329L141.755 89.1847L153.89 83.0799L167.009 76.484V36.5008C167.008 35.8299 166.768 35.1866 166.34 34.7123C165.913 34.2379 165.333 33.9712 164.729 33.9708Z" fill="#303F9F"/>
<path d="M151.318 67.9028H113.23C112.364 67.9033 111.532 68.2758 110.908 68.9422C110.284 69.6086 109.916 70.5172 109.883 71.4775C109.878 71.526 109.876 71.5747 109.877 71.6234C109.878 72.6097 110.232 73.5553 110.861 74.2527C111.489 74.9502 112.341 75.3426 113.23 75.344H151.318C152.207 75.344 153.06 74.952 153.689 74.2542C154.318 73.5565 154.671 72.6101 154.671 71.6234C154.671 70.6366 154.318 69.6902 153.689 68.9925C153.06 68.2947 152.207 67.9028 151.318 67.9028Z" fill="white"/>
<path d="M153.488 82.6304C152.883 82.0565 152.113 81.7418 151.318 81.7434H113.23C112.341 81.7434 111.488 82.1354 110.859 82.8332C110.23 83.5309 109.877 84.4773 109.877 85.464C109.877 86.4508 110.23 87.3971 110.859 88.0949C111.488 88.7926 112.341 89.1846 113.23 89.1846H141.756L153.89 83.0799C153.768 82.9177 153.633 82.7673 153.488 82.6304Z" fill="white"/>
<path d="M118.865 95.7329L123.025 97.8254C123.269 97.9475 123.533 98.0107 123.801 98.0107C124.068 98.0107 124.332 97.9475 124.576 97.8254L128.736 95.7329H118.865Z" fill="white"/>
<path d="M142.799 52.041C142.563 51.3248 142.134 50.7063 141.571 50.2692C141.008 49.8322 140.337 49.5976 139.65 49.5973H124.898C124.254 49.598 123.623 49.8043 123.082 50.1917C122.541 50.5791 122.112 51.1312 121.845 51.7821C121.647 52.264 121.544 52.7879 121.545 53.3179C121.546 54.3043 121.9 55.2498 122.528 55.9473C123.157 56.6447 124.009 57.0372 124.898 57.0385H139.65C140.19 57.0386 140.721 56.8942 141.199 56.6177C141.678 56.3412 142.089 55.9407 142.398 55.4502C142.707 54.9596 142.905 54.3936 142.975 53.8001C143.045 53.2066 142.984 52.6032 142.799 52.041Z" fill="white"/>
<path d="M140.454 89.1847L127.435 95.7329L124.353 97.2837C124.179 97.3705 123.991 97.4154 123.8 97.4154C123.61 97.4154 123.421 97.3705 123.248 97.2837L120.166 95.7329H118.865L123.025 97.8254C123.269 97.9475 123.533 98.0107 123.8 98.0107C124.068 98.0107 124.332 97.9475 124.576 97.8254L128.736 95.7329L141.755 89.1847H140.454ZM140.454 89.1847L127.435 95.7329L124.353 97.2837C124.179 97.3705 123.991 97.4154 123.8 97.4154C123.61 97.4154 123.421 97.3705 123.248 97.2837L120.166 95.7329H118.865L123.025 97.8254C123.269 97.9475 123.533 98.0107 123.8 98.0107C124.068 98.0107 124.332 97.9475 124.576 97.8254L128.736 95.7329L141.755 89.1847H140.454ZM140.454 89.1847L127.435 95.7329L124.353 97.2837C124.179 97.3705 123.991 97.4154 123.8 97.4154C123.61 97.4154 123.421 97.3705 123.248 97.2837L120.166 95.7329H118.865L123.025 97.8254C123.269 97.9475 123.533 98.0107 123.8 98.0107C124.068 98.0107 124.332 97.9475 124.576 97.8254L128.736 95.7329L141.755 89.1847H140.454ZM184.151 68.7094C184.052 68.6001 183.943 68.5024 183.827 68.4177C183.563 68.2281 183.261 68.1154 182.948 68.0899C182.634 68.0644 182.32 68.127 182.035 68.2718L153.488 82.6304L140.454 89.1847L127.435 95.7329L124.353 97.2837C124.179 97.3705 123.991 97.4154 123.8 97.4154C123.61 97.4154 123.421 97.3705 123.248 97.2837L120.166 95.7329L116.955 94.1167L97.5437 84.3568L97.5383 84.3538L92.2462 81.6899L76.4451 73.7426L65.5659 68.2719C65.4552 68.215 65.3391 68.1721 65.2199 68.1439C64.9571 68.071 64.683 68.0649 64.4178 68.126C63.9936 68.2224 63.6123 68.4781 63.3382 68.85C63.0641 69.222 62.914 69.6874 62.9131 70.1679V144.916C62.9136 145.469 63.1116 145.998 63.4636 146.389C63.8156 146.78 64.2929 146.999 64.7907 147H182.81C183.308 146.999 183.785 146.78 184.137 146.389C184.489 145.998 184.687 145.469 184.688 144.916V70.1679C184.688 69.6224 184.496 69.0984 184.151 68.7094V68.7094ZM184.151 144.916C184.151 145.311 184.01 145.69 183.758 145.969C183.507 146.248 183.166 146.405 182.81 146.405H64.7907C64.435 146.405 64.094 146.248 63.8425 145.969C63.591 145.69 63.4497 145.311 63.4495 144.916V70.1679C63.4496 69.9191 63.5059 69.6744 63.6132 69.456C63.7205 69.2376 63.8754 69.0526 64.0638 68.9177C64.1963 68.8236 64.3423 68.7551 64.4956 68.7153C64.5407 68.7045 64.5864 68.6966 64.6324 68.6915C64.6848 68.6831 64.7377 68.6791 64.7906 68.6796C64.9813 68.6799 65.1698 68.7256 65.3432 68.8136L76.6998 74.5254L92.4071 82.4251L96.8221 84.6455L97.5383 85.0057L116.231 94.4084L118.865 95.7329L123.025 97.8254C123.269 97.9475 123.533 98.0107 123.8 98.0107C124.068 98.0107 124.332 97.9475 124.576 97.8254L128.736 95.7329L141.755 89.1847L153.89 83.0799L182.257 68.8136C182.462 68.7109 182.686 68.6667 182.909 68.6849C183.133 68.7031 183.348 68.7831 183.537 68.9177C183.558 68.9319 183.579 68.9478 183.599 68.9654C183.62 68.9807 183.64 68.9986 183.658 69.0189C183.812 69.1575 183.936 69.3325 184.022 69.5313C184.107 69.7302 184.151 69.9476 184.151 70.1679L184.151 144.916ZM140.454 89.1847L127.435 95.7329L124.353 97.2837C124.179 97.3705 123.991 97.4154 123.8 97.4154C123.61 97.4154 123.421 97.3705 123.248 97.2837L120.166 95.7329H118.865L123.025 97.8254C123.269 97.9475 123.533 98.0107 123.8 98.0107C124.068 98.0107 124.332 97.9475 124.576 97.8254L128.736 95.7329L141.755 89.1847H140.454ZM140.454 89.1847L127.435 95.7329L124.353 97.2837C124.179 97.3705 123.991 97.4154 123.8 97.4154C123.61 97.4154 123.421 97.3705 123.248 97.2837L120.166 95.7329H118.865L123.025 97.8254C123.269 97.9475 123.533 98.0107 123.8 98.0107C124.068 98.0107 124.332 97.9475 124.576 97.8254L128.736 95.7329L141.755 89.1847H140.454ZM96.8221 84.6455L97.5383 85.0057V84.3568L96.8221 84.6455ZM140.454 89.1847L127.435 95.7329L124.353 97.2837C124.179 97.3705 123.991 97.4154 123.8 97.4154C123.61 97.4154 123.421 97.3705 123.248 97.2837L120.166 95.7329H118.865L123.025 97.8254C123.269 97.9475 123.533 98.0107 123.8 98.0107C124.068 98.0107 124.332 97.9475 124.576 97.8254L128.736 95.7329L141.755 89.1847H140.454Z" fill="#3F3D56"/>
<path d="M47.0807 147H16.7712C16.7 147 16.6318 146.969 16.5815 146.913C16.5312 146.857 16.5029 146.781 16.5029 146.702C16.5029 146.623 16.5312 146.548 16.5815 146.492C16.6318 146.436 16.7 146.405 16.7712 146.405H47.0807C47.1518 146.405 47.22 146.436 47.2703 146.492C47.3206 146.548 47.3489 146.623 47.3489 146.702C47.3489 146.781 47.3206 146.857 47.2703 146.913C47.22 146.969 47.1518 147 47.0807 147Z" fill="#3F3D56"/>
<path d="M30.1454 51.0425C29.6506 50.7638 29.2391 50.332 28.9608 49.7993C28.6826 49.2665 28.5494 48.6557 28.5775 48.0407C28.6056 47.4257 28.7937 46.8329 29.1191 46.3341C29.4445 45.8353 29.8932 45.4518 30.4109 45.2302C32.3988 44.3788 34.6275 46.1162 36.7113 45.6223C38.7882 45.13 39.9897 42.3745 39.494 40.0828C38.9982 37.7911 37.1938 36.065 35.2042 35.2407C33.9047 34.7036 32.5131 34.4977 31.1322 34.6382C29.7514 34.7786 28.4166 35.2618 27.2268 36.0521C26.0493 36.8655 25.0686 37.9857 24.37 39.3154C23.6714 40.6451 23.276 42.1441 23.2183 43.6819C23.1912 45.2212 23.5301 46.7411 24.2008 48.0888C24.8715 49.4364 25.8504 50.5642 27.0388 51.3585C27.5684 51.6973 28.1849 51.9693 28.7806 51.8168C29.2696 51.6405 29.7303 51.3792 30.1454 51.0425Z" fill="#2F2E41"/>
<path d="M28.0104 35.8739C26.2574 33.2938 23.891 31.1741 21.1375 30.1232C18.3839 29.0723 15.2373 29.1567 12.6512 30.6418C10.0651 32.1269 8.13644 35.0764 7.93513 38.3C7.60009 43.665 11.7312 48.2255 12.1552 53.5828C12.2895 55.2808 12.0412 56.9894 11.4324 58.5544C10.8237 60.1194 9.87364 61.4919 8.66793 62.5481C7.46222 63.6043 6.03869 64.3111 4.52556 64.6048C3.01242 64.8985 1.45721 64.7699 0 64.2306C1.03791 65.1787 2.24128 65.8784 3.53453 66.2857C4.82777 66.6929 6.18294 66.799 7.5149 66.5973C8.84469 66.3758 10.1134 65.8287 11.229 64.9957C12.3446 64.1626 13.2792 63.0645 13.965 61.781C14.8947 59.9884 15.2765 57.9061 15.4248 55.8444C15.6577 52.5844 15.3423 49.3048 14.4947 46.1728C14.0313 44.4639 13.4029 42.7054 13.6967 40.9509C13.8642 40.0383 14.2697 39.2005 14.8627 38.5414C15.4557 37.8824 16.2101 37.4313 17.0322 37.2441C18.3608 36.9678 19.7192 37.4178 20.9879 37.9357C22.2565 38.4535 23.5355 39.0528 24.8869 39.0871C26.2383 39.1214 27.7102 38.4349 28.2325 37.0514L28.0104 35.8739Z" fill="#2F2E41"/>
</g>
<defs>
<clipPath id="clip0_44_4011">
<rect width="204" height="147" fill="white"/>
</clipPath>
</defs>
</svg>
