<svg width="265" height="91" viewBox="0 0 265 91" fill="none" xmlns="http://www.w3.org/2000/svg">
    <g clip-path="url(#clip0_39_1353)">
        <path d="M7.60396 80.3264C8.53487 80.6261 9.53436 80.7012 10.5062 80.5444C11.4779 80.3876 12.3893 80.0042 13.1523 79.431C15.0957 77.9367 15.7051 75.4756 16.2007 73.1962L17.667 66.4539L14.5971 68.3904C12.3892 69.783 10.1318 71.2204 8.60325 73.2375C7.07469 75.2546 6.40783 78.0083 7.63561 80.1909" fill="#B1BCFF"/>
        <path d="M8.07836 88.9586C7.69197 86.3797 7.29441 83.7674 7.5661 81.1609C7.80686 78.8459 8.57781 76.5853 10.1474 74.731C10.9805 73.7488 11.9942 72.9072 13.143 72.2441C13.4425 72.071 13.7182 72.5057 13.42 72.6782C11.4322 73.829 9.89471 75.5283 9.02916 77.5313C8.07324 79.7585 7.91975 82.1866 8.0844 84.5526C8.18393 85.9834 8.39542 87.4049 8.60782 88.8246C8.62459 88.8889 8.61412 88.9565 8.57853 89.0139C8.54294 89.0713 8.48487 89.1142 8.41608 89.1339C8.34591 89.1512 8.27112 89.1424 8.20793 89.1096C8.14474 89.0767 8.09825 89.0223 8.07855 88.9582L8.07836 88.9586Z" fill="#F2F2F2"/>
        <path d="M10.8594 84.8205C11.2586 85.3765 11.8073 85.8289 12.4528 86.1342C13.0983 86.4395 13.8188 86.5874 14.5448 86.5635C16.4109 86.4824 17.966 85.2897 19.3657 84.1571L23.5068 80.8076L20.7662 80.6874C18.7953 80.6009 16.7735 80.5198 14.8962 81.0773C13.019 81.6347 11.2877 82.9742 10.9445 84.7543" fill="#B1BCFF"/>
        <path d="M6.98629 90.441C8.84655 87.4257 11.0041 84.0745 14.8596 83.0033C15.9316 82.7065 17.0555 82.6002 18.171 82.6901C18.5227 82.7179 18.4349 83.2143 18.084 83.1867C16.214 83.0444 14.3477 83.4968 12.7992 84.4675C11.3435 85.435 10.1094 86.6551 9.16689 88.0583C8.56533 88.8975 8.02655 89.7723 7.48776 90.6458C7.3156 90.925 6.81212 90.7234 6.98629 90.441Z" fill="#F2F2F2"/>
        <path d="M177.765 76.3849C179.047 76.7977 180.423 76.9011 181.762 76.6851C183.1 76.4692 184.355 75.9412 185.406 75.1519C188.082 73.0941 188.921 69.7051 189.603 66.5662L191.623 57.2817L187.395 59.9483C184.355 61.866 181.246 63.8454 179.141 66.623C177.036 69.4007 176.118 73.1927 177.809 76.1984" fill="#B1BCFF"/>
        <path d="M178.418 88.2719C177.885 84.7206 177.338 81.1234 177.712 77.534C178.044 74.3462 179.105 71.2332 181.267 68.6796C182.414 67.3271 183.81 66.1682 185.392 65.2551C185.804 65.0166 186.184 65.6153 185.773 65.8528C183.036 67.4376 180.919 69.7777 179.727 72.5358C178.411 75.6029 178.199 78.9465 178.426 82.2047C178.563 84.175 178.854 86.1324 179.147 88.0875C179.17 88.1759 179.155 88.2691 179.106 88.3481C179.057 88.4272 178.977 88.4862 178.883 88.5133C178.786 88.5372 178.683 88.5251 178.596 88.4799C178.509 88.4346 178.445 88.3597 178.418 88.2715L178.418 88.2719Z" fill="#F2F2F2"/>
        <path d="M182.247 82.5735C182.797 83.3392 183.552 83.9622 184.441 84.3826C185.33 84.803 186.322 85.0066 187.322 84.9738C189.892 84.8621 192.033 83.2197 193.961 81.66L199.663 77.0475L195.889 76.882C193.175 76.7629 190.391 76.6512 187.806 77.4189C185.221 78.1865 182.837 80.031 182.364 82.4824" fill="#B1BCFF"/>
        <path d="M176.913 90.3133C179.475 86.161 182.446 81.5462 187.755 80.0712C189.231 79.6625 190.779 79.5161 192.315 79.6398C192.799 79.6781 192.678 80.3618 192.195 80.3237C189.62 80.1278 187.05 80.7507 184.918 82.0875C182.866 83.367 181.268 85.146 179.916 87.0323C179.087 88.1879 178.346 89.3925 177.604 90.5954C177.366 90.9799 176.673 90.7022 176.913 90.3133Z" fill="#F2F2F2"/>
        <path d="M153.755 13.9063C153.485 13.7985 153.268 13.6035 153.144 13.3584C153.021 13.1133 153 12.8351 153.086 12.5769C153.1 12.5374 153.109 12.4964 153.113 12.4549C153.12 12.3367 153.086 12.2192 153.016 12.12C152.945 12.0207 152.841 11.945 152.72 11.904C152.599 11.8629 152.466 11.8588 152.342 11.8922C152.218 11.9256 152.109 11.9948 152.031 12.0894C152.004 12.123 151.982 12.1593 151.964 12.1977C151.847 12.4452 151.634 12.6444 151.366 12.7574C151.098 12.8704 150.795 12.8893 150.513 12.8106C150.47 12.7978 150.425 12.7898 150.38 12.7867C150.251 12.7795 150.123 12.8106 150.014 12.8754C149.906 12.9401 149.823 13.0351 149.778 13.1463C149.734 13.2575 149.729 13.379 149.766 13.4927C149.802 13.6064 149.878 13.7063 149.981 13.7776C150.017 13.8022 150.057 13.8227 150.099 13.8387C150.369 13.9464 150.587 14.1415 150.71 14.3866C150.833 14.6317 150.854 14.9099 150.768 15.168C150.754 15.2076 150.745 15.2486 150.742 15.29C150.734 15.4083 150.768 15.5258 150.839 15.625C150.909 15.7243 151.013 15.8 151.135 15.841C151.256 15.882 151.388 15.8862 151.513 15.8528C151.637 15.8194 151.746 15.7502 151.824 15.6556C151.85 15.622 151.873 15.5857 151.89 15.5473C152.008 15.2998 152.221 15.1006 152.488 14.9876C152.756 14.8746 153.06 14.8556 153.341 14.9344C153.385 14.9471 153.429 14.9552 153.475 14.9583C153.604 14.9655 153.732 14.9344 153.84 14.8696C153.949 14.8049 154.031 14.7098 154.076 14.5987C154.121 14.4875 154.125 14.366 154.089 14.2523C154.052 14.1386 153.977 14.0387 153.874 13.9673C153.837 13.9428 153.797 13.9223 153.755 13.9063Z" fill="#CBCBCB"/>
        <path d="M176.628 62.6991C176.358 62.5913 176.141 62.3963 176.018 62.1512C175.894 61.906 175.873 61.6279 175.959 61.3697C175.973 61.3301 175.982 61.2892 175.986 61.2477C175.993 61.1294 175.959 61.012 175.889 60.9127C175.818 60.8135 175.714 60.7378 175.593 60.6967C175.472 60.6557 175.339 60.6516 175.215 60.685C175.091 60.7184 174.982 60.7875 174.904 60.8822C174.877 60.9158 174.855 60.9521 174.837 60.9905C174.72 61.238 174.507 61.4372 174.239 61.5502C173.972 61.6632 173.668 61.6821 173.386 61.6034C173.343 61.5906 173.298 61.5826 173.253 61.5795C173.124 61.5723 172.996 61.6034 172.887 61.6681C172.779 61.7329 172.696 61.8279 172.651 61.9391C172.607 62.0503 172.602 62.1717 172.639 62.2854C172.675 62.3992 172.751 62.4991 172.854 62.5704C172.891 62.595 172.93 62.6154 172.972 62.6315C173.242 62.7392 173.46 62.9343 173.583 63.1794C173.706 63.4245 173.727 63.7026 173.641 63.9608C173.627 64.0004 173.618 64.0414 173.615 64.0828C173.607 64.2011 173.641 64.3186 173.712 64.4178C173.783 64.5171 173.886 64.5928 174.008 64.6338C174.129 64.6748 174.262 64.6789 174.386 64.6455C174.51 64.6121 174.619 64.543 174.697 64.4484C174.724 64.4148 174.746 64.3785 174.763 64.3401C174.881 64.0926 175.094 63.8934 175.361 63.7804C175.629 63.6674 175.933 63.6484 176.214 63.7272C176.258 63.7399 176.302 63.7479 176.348 63.7511C176.477 63.7583 176.605 63.7272 176.713 63.6624C176.822 63.5977 176.904 63.5026 176.949 63.3914C176.994 63.2803 176.998 63.1588 176.962 63.0451C176.925 62.9314 176.85 62.8315 176.747 62.7601C176.71 62.7356 176.67 62.7151 176.628 62.6991Z" fill="#B1BCFF"/>
        <path d="M56.7085 34.2616C56.4384 34.1538 56.221 33.9588 56.0976 33.7137C55.9742 33.4685 55.9536 33.1904 56.0395 32.9322C56.0534 32.8926 56.0622 32.8517 56.0656 32.8102C56.0735 32.6919 56.0395 32.5745 55.9688 32.4752C55.8981 32.376 55.7944 32.3003 55.673 32.2592C55.5517 32.2182 55.4191 32.2141 55.295 32.2475C55.1709 32.2809 55.0618 32.35 54.9839 32.4447C54.9571 32.4783 54.9348 32.5146 54.9173 32.553C54.7996 32.8005 54.5868 32.9997 54.3192 33.1127C54.0516 33.2257 53.748 33.2446 53.4662 33.1659C53.423 33.1531 53.3782 33.1451 53.333 33.142C53.2039 33.1348 53.0756 33.1659 52.9673 33.2306C52.859 33.2954 52.7763 33.3904 52.7315 33.5016C52.6868 33.6128 52.6823 33.7342 52.7187 33.8479C52.7552 33.9617 52.8307 34.0616 52.934 34.1329C52.9706 34.1575 53.0103 34.1779 53.0522 34.194C53.3223 34.3017 53.5398 34.4968 53.6631 34.7419C53.7865 34.987 53.8072 35.2651 53.7212 35.5233C53.7073 35.5629 53.6985 35.6039 53.6951 35.6453C53.6872 35.7636 53.7212 35.8811 53.7919 35.9803C53.8626 36.0796 53.9663 36.1553 54.0877 36.1963C54.2091 36.2373 54.3416 36.2414 54.4657 36.208C54.5899 36.1746 54.6989 36.1055 54.7768 36.0109C54.8036 35.9773 54.826 35.9409 54.8434 35.9026C54.9611 35.6551 55.174 35.4559 55.4415 35.3429C55.7091 35.2299 56.0127 35.2109 56.2946 35.2897C56.3378 35.3024 56.3825 35.3104 56.4277 35.3136C56.5569 35.3208 56.6851 35.2897 56.7934 35.2249C56.9017 35.1602 56.9844 35.0651 57.0292 34.9539C57.074 34.8428 57.0784 34.7213 57.042 34.6076C57.0055 34.4939 56.9301 34.394 56.8268 34.3226C56.7901 34.2981 56.7504 34.2776 56.7085 34.2616Z" fill="#B1BCFF"/>
        <path d="M106.737 16.7632C107.82 16.7632 108.697 15.959 108.697 14.9671C108.697 13.9752 107.82 13.1711 106.737 13.1711C105.654 13.1711 104.776 13.9752 104.776 14.9671C104.776 15.959 105.654 16.7632 106.737 16.7632Z" fill="#B1BCFF"/>
        <path d="M211.298 11.9737C212.381 11.9737 213.259 11.1696 213.259 10.1776C213.259 9.18571 212.381 8.38159 211.298 8.38159C210.216 8.38159 209.338 9.18571 209.338 10.1776C209.338 11.1696 210.216 11.9737 211.298 11.9737Z" fill="#303F9F"/>
        <path d="M59.0299 3.5921C60.1127 3.5921 60.9904 2.78798 60.9904 1.79605C60.9904 0.80412 60.1127 0 59.0299 0C57.9471 0 57.0693 0.80412 57.0693 1.79605C57.0693 2.78798 57.9471 3.5921 59.0299 3.5921Z" fill="#CBCBCB"/>
        <path d="M51.4905 85.2199C59.2626 85.2199 65.5631 79.448 65.5631 72.328C65.5631 65.2081 59.2626 59.4362 51.4905 59.4362C43.7185 59.4362 37.418 65.2081 37.418 72.328C37.418 79.448 43.7185 85.2199 51.4905 85.2199Z" fill="#2F2E41"/>
        <path d="M49.3524 82.4457H45.0771V89.4628H49.3524V82.4457Z" fill="#2F2E41"/>
        <path d="M57.9031 82.4457H53.6279V89.4628H57.9031V82.4457Z" fill="#2F2E41"/>
        <path d="M48.6398 90.7683C50.6074 90.7683 52.2025 90.2204 52.2025 89.5444C52.2025 88.8685 50.6074 88.3205 48.6398 88.3205C46.6722 88.3205 45.0771 88.8685 45.0771 89.5444C45.0771 90.2204 46.6722 90.7683 48.6398 90.7683Z" fill="#2F2E41"/>
        <path d="M57.1906 90.6051C59.1582 90.6051 60.7533 90.0572 60.7533 89.3812C60.7533 88.7053 59.1582 88.1573 57.1906 88.1573C55.223 88.1573 53.6279 88.7053 53.6279 89.3812C53.6279 90.0572 55.223 90.6051 57.1906 90.6051Z" fill="#2F2E41"/>
        <path d="M66.6546 66.6946C69.7022 63.9005 71.3967 60.9249 70.4392 60.0484C69.4817 59.1719 66.2349 60.7264 63.1872 63.5206C60.1396 66.3147 58.4451 69.2903 59.4026 70.1667C60.3601 71.0432 63.6069 69.4887 66.6546 66.6946Z" fill="#2F2E41"/>
        <path d="M40.1472 71.0648C41.1047 70.1883 39.4103 67.2127 36.3626 64.4186C33.3149 61.6245 30.0681 60.07 29.1106 60.9464C28.1532 61.8229 29.8476 64.7985 32.8952 67.5926C35.9429 70.3867 39.1897 71.9413 40.1472 71.0648Z" fill="#2F2E41"/>
        <path d="M45.8096 74.8122C48.4659 74.8122 50.6192 72.8395 50.6192 70.4061C50.6192 67.9727 48.4659 66 45.8096 66C43.1533 66 41 67.9727 41 70.4061C41 72.8395 43.1533 74.8122 45.8096 74.8122Z" fill="white"/>
        <path d="M57.8096 74.8122C60.4659 74.8122 62.6192 72.8395 62.6192 70.4061C62.6192 67.9727 60.4659 66 57.8096 66C55.1533 66 53 67.9727 53 70.4061C53 72.8395 55.1533 74.8122 57.8096 74.8122Z" fill="white"/>
        <path d="M45.8093 71.8748C46.6947 71.8748 47.4125 71.2172 47.4125 70.4061C47.4125 69.5949 46.6947 68.9374 45.8093 68.9374C44.9238 68.9374 44.2061 69.5949 44.2061 70.4061C44.2061 71.2172 44.9238 71.8748 45.8093 71.8748Z" fill="#3F3D56"/>
        <path d="M57.8093 71.8748C58.6947 71.8748 59.4125 71.2172 59.4125 70.4061C59.4125 69.5949 58.6947 68.9374 57.8093 68.9374C56.9238 68.9374 56.2061 69.5949 56.2061 70.4061C56.2061 71.2172 56.9238 71.8748 57.8093 71.8748Z" fill="#3F3D56"/>
        <path d="M54.7162 78.65C54.8648 79.3976 54.6831 80.1687 54.211 80.7937C53.739 81.4186 53.0153 81.8461 52.1991 81.9823C51.383 82.1184 50.5412 81.9519 49.8591 81.5194C49.1769 81.087 48.7102 80.424 48.5616 79.6763L48.5605 79.6708C48.2528 78.1136 49.5671 77.5625 51.2669 77.2806C52.9668 76.9987 54.4085 77.0928 54.7162 78.65Z" fill="white"/>
        <path d="M65.2895 85.8583C64.9727 85.8587 64.669 85.9741 64.445 86.1793C64.2211 86.3845 64.0951 86.6626 64.0947 86.9528V89.239C64.0951 89.5292 64.2211 89.8074 64.445 90.0126C64.669 90.2178 64.9727 90.3332 65.2895 90.3335H84.5125C84.8293 90.3332 85.1329 90.2178 85.3569 90.0126C85.5809 89.8074 85.7069 89.5292 85.7072 89.239V86.9528C85.7069 86.6626 85.5809 86.3845 85.3569 86.1793C85.1329 85.9741 84.8293 85.8587 84.5125 85.8583H65.2895Z" fill="#B1BCFF"/>
        <path d="M76.3437 84.3358C76.2247 84.2729 76.0833 84.2558 75.9506 84.2884C75.8178 84.321 75.7047 84.4005 75.636 84.5095L74.9216 85.6431L74.2216 84.3756C74.1595 84.2633 74.0513 84.1781 73.9208 84.1389C73.7902 84.0997 73.648 84.1096 73.5254 84.1664C73.4028 84.2232 73.3098 84.3223 73.267 84.4419C73.2242 84.5615 73.235 84.6918 73.297 84.8042L73.8418 85.7906H73.6421V90.4013H76.3067V85.7906H76.0252L76.5334 84.9842C76.6021 84.8752 76.6207 84.7456 76.5851 84.624C76.5495 84.5024 76.4627 84.3988 76.3437 84.3358Z" fill="#303F9F"/>
        <path d="M51.1284 63.8721C48.628 63.8698 46.1423 63.5219 43.7552 62.8402C43.5893 62.7912 43.4446 62.6954 43.3418 62.5665C43.239 62.4376 43.1832 62.2822 43.1826 62.1226V56.875C43.1829 56.6766 43.269 56.4864 43.4222 56.3461C43.5753 56.2058 43.7829 56.1269 43.9995 56.1266H58.3768C58.5934 56.1269 58.801 56.2058 58.9542 56.3461C59.1073 56.4864 59.1935 56.6766 59.1937 56.875V62.1195C59.1938 62.2805 59.1373 62.4373 59.0327 62.5666C58.928 62.6959 58.7807 62.791 58.6125 62.8377C56.1866 63.5167 53.665 63.8653 51.1284 63.8721Z" fill="#303F9F"/>
        <path opacity="0.2" d="M59.03 56.875V57.7521L51.2499 60.2516C51.1045 60.2975 50.9461 60.2954 50.8022 60.2456L43.3457 57.6802V56.875C43.3462 56.7164 43.4152 56.5643 43.5377 56.4522C43.6601 56.34 43.826 56.2768 43.9992 56.2763H58.3765C58.5497 56.2768 58.7156 56.34 58.8381 56.4522C58.9605 56.5643 59.0295 56.7164 59.03 56.875Z" fill="black"/>
        <path d="M51.0319 59.2373C50.9338 59.2373 50.8366 59.2212 50.7447 59.1898L39.602 55.3568C39.4444 55.3026 39.309 55.2051 39.2142 55.0777C39.1194 54.9504 39.0699 54.7993 39.0724 54.6451C39.0748 54.4909 39.1292 54.3413 39.2281 54.2165C39.327 54.0917 39.4655 53.998 39.6247 53.9481L50.1089 50.6623C50.2782 50.6098 50.4617 50.6091 50.6315 50.6603L62.3327 54.2335C62.4944 54.2829 62.6351 54.3773 62.7353 54.5036C62.8354 54.6298 62.89 54.7816 62.8913 54.9377C62.8926 55.0938 62.8406 55.2464 62.7426 55.374C62.6446 55.5017 62.5054 55.5981 62.3446 55.6497L51.302 59.1953C51.2152 59.2232 51.1238 59.2373 51.0319 59.2373Z" fill="#303F9F"/>
        <path d="M40.8951 58.9704H40.5684V54.6299H50.5345V54.9293H40.8951V58.9704Z" fill="#3F3D56"/>
        <path d="M40.7316 59.8684C41.0926 59.8684 41.3852 59.6004 41.3852 59.2697C41.3852 58.9391 41.0926 58.6711 40.7316 58.6711C40.3707 58.6711 40.0781 58.9391 40.0781 59.2697C40.0781 59.6004 40.3707 59.8684 40.7316 59.8684Z" fill="#3F3D56"/>
        <path d="M132.853 85.2199C140.625 85.2199 146.925 79.448 146.925 72.328C146.925 65.2081 140.625 59.4362 132.853 59.4362C125.081 59.4362 118.78 65.2081 118.78 72.328C118.78 79.448 125.081 85.2199 132.853 85.2199Z" fill="#2F2E41"/>
        <path d="M130.716 82.4457H126.44V89.4628H130.716V82.4457Z" fill="#2F2E41"/>
        <path d="M139.265 82.4457H134.99V89.4628H139.265V82.4457Z" fill="#2F2E41"/>
        <path d="M130.003 90.7683C131.971 90.7683 133.566 90.2204 133.566 89.5444C133.566 88.8685 131.971 88.3205 130.003 88.3205C128.035 88.3205 126.44 88.8685 126.44 89.5444C126.44 90.2204 128.035 90.7683 130.003 90.7683Z" fill="#2F2E41"/>
        <path d="M138.553 90.6051C140.521 90.6051 142.116 90.0572 142.116 89.3812C142.116 88.7053 140.521 88.1573 138.553 88.1573C136.585 88.1573 134.99 88.7053 134.99 89.3812C134.99 90.0572 136.585 90.6051 138.553 90.6051Z" fill="#2F2E41"/>
        <path d="M148.018 66.6946C151.066 63.9005 152.76 60.9249 151.802 60.0484C150.845 59.1719 147.598 60.7265 144.55 63.5206C141.503 66.3147 139.808 69.2903 140.766 70.1667C141.723 71.0432 144.97 69.4887 148.018 66.6946Z" fill="#2F2E41"/>
        <path d="M120.293 78.6612C122.752 75.4167 123.844 72.2132 122.732 71.5059C121.62 70.7987 118.725 72.8555 116.266 76.1C113.807 79.3445 112.715 82.548 113.827 83.2553C114.938 83.9625 117.833 81.9057 120.293 78.6612Z" fill="#2F2E41"/>
        <path d="M127.81 76.8122C130.466 76.8122 132.619 74.8395 132.619 72.4061C132.619 69.9727 130.466 68 127.81 68C125.153 68 123 69.9727 123 72.4061C123 74.8395 125.153 76.8122 127.81 76.8122Z" fill="white"/>
        <path d="M136.81 71.8122C139.466 71.8122 141.619 69.8395 141.619 67.4061C141.619 64.9727 139.466 63 136.81 63C134.153 63 132 64.9727 132 67.4061C132 69.8395 134.153 71.8122 136.81 71.8122Z" fill="white"/>
        <path d="M129.443 72.3781C130.328 72.3781 131.046 71.7205 131.046 70.9094C131.046 70.0982 130.328 69.4407 129.443 69.4407C128.558 69.4407 127.84 70.0982 127.84 70.9094C127.84 71.7205 128.558 72.3781 129.443 72.3781Z" fill="#3F3D56"/>
        <path d="M138.443 67.3781C139.328 67.3781 140.046 66.7205 140.046 65.9094C140.046 65.0982 139.328 64.4407 138.443 64.4407C137.558 64.4407 136.84 65.0982 136.84 65.9094C136.84 66.7205 137.558 67.3781 138.443 67.3781Z" fill="#3F3D56"/>
        <path d="M138.027 78.65C138.499 80.2069 136.78 81.6988 134.189 81.9823C131.597 82.2657 129.113 81.2333 128.641 79.6763L128.64 79.6708C128.17 78.1136 130.175 77.5625 132.767 77.2806C135.359 76.9987 137.558 77.0928 138.027 78.65Z" fill="white"/>
        <path d="M127.929 64.7407C125.608 65.593 123.16 66.1198 120.668 66.3032C120.494 66.3144 120.32 66.2749 120.173 66.1905C120.025 66.106 119.91 65.9809 119.844 65.833L117.707 60.9643C117.627 60.7801 117.629 60.5742 117.714 60.3917C117.799 60.2092 117.959 60.065 118.16 59.9908L131.5 55.0771C131.701 55.0033 131.925 55.0056 132.125 55.0834C132.324 55.1612 132.481 55.3083 132.562 55.4923L134.698 60.3581C134.764 60.5075 134.775 60.6722 134.731 60.828C134.686 60.9838 134.588 61.1223 134.451 61.2232C132.477 62.6822 130.279 63.8674 127.929 64.7407Z" fill="#303F9F"/>
        <path opacity="0.2" d="M132.411 55.5481L132.768 56.3618L126.568 61.3399C126.452 61.4322 126.304 61.4844 126.15 61.4873L118.187 61.6556L117.859 60.9085C117.795 60.7611 117.797 60.5965 117.865 60.4505C117.933 60.3046 118.061 60.1892 118.222 60.1296L131.561 55.216C131.722 55.1572 131.902 55.1592 132.061 55.2214C132.22 55.2836 132.346 55.4011 132.411 55.5481Z" fill="black"/>
        <path d="M125.952 60.4732C125.861 60.5068 125.765 60.5251 125.667 60.5273L113.767 60.7792C113.599 60.7828 113.434 60.7386 113.294 60.6528C113.154 60.5671 113.047 60.4438 112.986 60.2999C112.926 60.156 112.915 59.9986 112.956 59.849C112.997 59.6995 113.087 59.5652 113.215 59.4644L121.604 52.8328C121.74 52.7261 121.91 52.6628 122.088 52.6523L134.4 51.9685C134.57 51.959 134.739 51.9985 134.883 52.0815C135.027 52.1644 135.14 52.2866 135.205 52.4309C135.269 52.5753 135.283 52.7346 135.244 52.8866C135.205 53.0385 135.116 53.1755 134.987 53.2784L126.186 60.342C126.117 60.3975 126.038 60.4419 125.952 60.4732Z" fill="#303F9F"/>
        <path d="M116.439 63.6901L116.136 63.8018L114.368 59.7747L123.615 56.3685L123.737 56.6463L114.793 59.9409L116.439 63.6901Z" fill="#3F3D56"/>
        <path d="M116.408 64.6224C116.769 64.6224 117.062 64.3543 117.062 64.0237C117.062 63.693 116.769 63.425 116.408 63.425C116.047 63.425 115.755 63.693 115.755 64.0237C115.755 64.3543 116.047 64.6224 116.408 64.6224Z" fill="#3F3D56"/>
        <path d="M186.427 41.8687C184.306 40.656 182.397 39.1571 180.764 37.4226C180.651 37.3006 180.584 37.1492 180.571 36.99C180.558 36.8308 180.6 36.6719 180.692 36.5361L183.719 32.0814C183.834 31.9131 184.017 31.7934 184.228 31.7484C184.439 31.7035 184.66 31.737 184.844 31.8417L197.049 38.8032C197.233 38.9082 197.364 39.0758 197.413 39.269C197.462 39.4623 197.425 39.6654 197.311 39.834L194.285 44.2861C194.192 44.4228 194.054 44.5285 193.891 44.5876C193.727 44.6467 193.547 44.6561 193.378 44.6143C190.926 44.0162 188.585 43.091 186.427 41.8687Z" fill="#303F9F"/>
        <path opacity="0.2" d="M197.172 39.7549L196.666 40.4994L188.619 38.8542C188.469 38.8228 188.336 38.7443 188.242 38.6323L183.393 32.8441L183.857 32.1605C183.949 32.0261 184.095 31.9305 184.264 31.8945C184.433 31.8586 184.61 31.8853 184.757 31.9687L196.962 38.9302C197.109 39.0145 197.213 39.1485 197.253 39.303C197.292 39.4575 197.263 39.62 197.172 39.7549Z" fill="black"/>
        <path d="M189.02 37.8877C188.936 37.8403 188.863 37.7795 188.803 37.7084L181.556 29.0592C181.453 28.9369 181.394 28.7886 181.387 28.6346C181.38 28.4805 181.426 28.3283 181.517 28.1986C181.608 28.0689 181.74 27.9682 181.896 27.9102C182.052 27.8521 182.224 27.8396 182.388 27.8743L193.183 30.1615C193.358 30.1989 193.514 30.2871 193.628 30.4128L201.5 39.1119C201.609 39.232 201.674 39.3803 201.686 39.536C201.698 39.6917 201.657 39.8469 201.568 39.9801C201.479 40.1132 201.347 40.2175 201.19 40.2784C201.033 40.3394 200.859 40.3538 200.693 40.3198L189.273 37.9829C189.183 37.9645 189.098 37.9323 189.02 37.8877Z" fill="#303F9F"/>
        <path d="M180.568 32.7528L180.291 32.5945L182.795 28.9099L191.256 33.7355L191.083 33.9894L182.9 29.322L180.568 32.7528Z" fill="#3F3D56"/>
        <path d="M180.257 33.5264C180.618 33.5264 180.911 33.2584 180.911 32.9277C180.911 32.5971 180.618 32.329 180.257 32.329C179.896 32.329 179.604 32.5971 179.604 32.9277C179.604 33.2584 179.896 33.5264 180.257 33.5264Z" fill="#3F3D56"/>
        <path d="M220.472 70.5522C228.244 70.5522 234.545 64.7803 234.545 57.6603C234.545 50.5403 228.244 44.7684 220.472 44.7684C212.7 44.7684 206.399 50.5403 206.399 57.6603C206.399 64.7803 212.7 70.5522 220.472 70.5522Z" fill="#2F2E41"/>
        <path d="M230.228 64.3449L226.58 66.3872L230.574 72.3747L234.222 70.3323L230.228 64.3449Z" fill="#2F2E41"/>
        <path d="M222.932 68.4296L219.284 70.472L223.279 76.4594L226.926 74.4171L222.932 68.4296Z" fill="#2F2E41"/>
        <path d="M231.925 73.1483C233.604 72.2083 234.653 70.9787 234.269 70.402C233.884 69.8252 232.211 70.1196 230.532 71.0596C228.853 71.9996 227.804 73.2291 228.189 73.8059C228.574 74.3827 230.247 74.0882 231.925 73.1483Z" fill="#2F2E41"/>
        <path d="M224.537 77.0937C226.216 76.1537 227.265 74.9242 226.88 74.3474C226.495 73.7707 224.822 74.0651 223.143 75.0051C221.465 75.945 220.415 77.1746 220.8 77.7514C221.185 78.3281 222.858 78.0337 224.537 77.0937Z" fill="#2F2E41"/>
        <path d="M212.559 55.499C213.517 54.6225 211.822 51.6469 208.775 48.8528C205.727 46.0587 202.48 44.5042 201.523 45.3806C200.565 46.2571 202.26 49.2327 205.307 52.0268C208.355 54.821 211.602 56.3755 212.559 55.499Z" fill="#2F2E41"/>
        <path d="M239.499 68.5875C240.611 67.8803 239.518 64.6768 237.059 61.4323C234.6 58.1878 231.705 56.1309 230.593 56.8382C229.481 57.5454 230.574 60.7489 233.033 63.9934C235.492 67.2379 238.387 69.2948 239.499 68.5875Z" fill="#2F2E41"/>
        <path d="M214.81 55.8122C217.466 55.8122 219.619 53.8395 219.619 51.4061C219.619 48.9727 217.466 47 214.81 47C212.153 47 210 48.9727 210 51.4061C210 53.8395 212.153 55.8122 214.81 55.8122Z" fill="white"/>
        <path d="M221.81 62.8122C224.466 62.8122 226.619 60.8395 226.619 58.4061C226.619 55.9727 224.466 54 221.81 54C219.153 54 217 55.9727 217 58.4061C217 60.8395 219.153 62.8122 221.81 62.8122Z" fill="white"/>
        <path d="M213.175 51.3781C214.061 51.3781 214.779 50.7205 214.779 49.9094C214.779 49.0982 214.061 48.4407 213.175 48.4407C212.29 48.4407 211.572 49.0982 211.572 49.9094C211.572 50.7205 212.29 51.3781 213.175 51.3781Z" fill="#3F3D56"/>
        <path d="M220.175 58.3781C221.061 58.3781 221.779 57.7205 221.779 56.9094C221.779 56.0982 221.061 55.4407 220.175 55.4407C219.29 55.4407 218.572 56.0982 218.572 56.9094C218.572 57.7205 219.29 58.3781 220.175 58.3781Z" fill="#3F3D56"/>
        <path d="M209.969 61.3871C209.057 62.756 210.272 64.6079 212.683 65.5234C215.094 66.439 217.788 66.0715 218.7 64.7026L218.703 64.6977C219.613 63.3279 217.846 62.3031 215.434 61.3889C213.022 60.4747 210.879 60.0173 209.969 61.3871Z" fill="white"/>
        <path d="M215.75 41.473C217.006 36.8371 222.553 34.1089 228.139 35.3795C233.724 36.6501 237.234 41.4383 235.977 46.0742C234.721 50.7101 230.552 50.7251 224.966 49.4545C219.38 48.1839 214.493 46.1089 215.75 41.473Z" fill="#B1BCFF"/>
        <path d="M264.673 91H0.326757C0.240096 91 0.156984 90.9685 0.0957047 90.9123C0.0344258 90.8562 0 90.7801 0 90.7007C0 90.6213 0.0344258 90.5451 0.0957047 90.489C0.156984 90.4329 0.240096 90.4013 0.326757 90.4013H264.673C264.76 90.4013 264.843 90.4329 264.904 90.489C264.966 90.5451 265 90.6213 265 90.7007C265 90.7801 264.966 90.8562 264.904 90.9123C264.843 90.9685 264.76 91 264.673 91Z" fill="#CBCBCB"/>
    </g>
    <defs>
        <clipPath id="clip0_39_1353">
            <rect width="265" height="91" fill="white"/>
        </clipPath>
    </defs>
</svg>
