<svg width="19" height="23" viewBox="0 0 19 23" fill="none" xmlns="http://www.w3.org/2000/svg">
    <path d="M17.8125 5.75H14.25V4.6C14.25 3.38 13.7496 2.20998 12.8588 1.34731C11.968 0.484642 10.7598 0 9.5 0C8.24022 0 7.03204 0.484642 6.14124 1.34731C5.25044 2.20998 4.75 3.38 4.75 4.6V5.75H1.1875C0.872555 5.75 0.57051 5.87116 0.347811 6.08683C0.125111 6.30249 0 6.595 0 6.9V19.55C0 20.465 0.375334 21.3425 1.04343 21.9895C1.71153 22.6365 2.61767 23 3.5625 23H15.4375C16.3823 23 17.2885 22.6365 17.9566 21.9895C18.6247 21.3425 19 20.465 19 19.55V6.9C19 6.595 18.8749 6.30249 18.6522 6.08683C18.4295 5.87116 18.1274 5.75 17.8125 5.75ZM7.125 4.6C7.125 3.99 7.37522 3.40499 7.82062 2.97365C8.26602 2.54232 8.87011 2.3 9.5 2.3C10.1299 2.3 10.734 2.54232 11.1794 2.97365C11.6248 3.40499 11.875 3.99 11.875 4.6V5.75H7.125V4.6ZM16.625 19.55C16.625 19.855 16.4999 20.1475 16.2772 20.3632C16.0545 20.5788 15.7524 20.7 15.4375 20.7H3.5625C3.24756 20.7 2.94551 20.5788 2.72281 20.3632C2.50011 20.1475 2.375 19.855 2.375 19.55V8.05H4.75V9.2C4.75 9.505 4.87511 9.79751 5.09781 10.0132C5.32051 10.2288 5.62256 10.35 5.9375 10.35C6.25244 10.35 6.55449 10.2288 6.77719 10.0132C6.99989 9.79751 7.125 9.505 7.125 9.2V8.05H11.875V9.2C11.875 9.505 12.0001 9.79751 12.2228 10.0132C12.4455 10.2288 12.7476 10.35 13.0625 10.35C13.3774 10.35 13.6795 10.2288 13.9022 10.0132C14.1249 9.79751 14.25 9.505 14.25 9.2V8.05H16.625V19.55Z" fill="black"/>
</svg>
