<svg width="21" height="21" viewBox="0 0 21 21" fill="none" xmlns="http://www.w3.org/2000/svg">
    <path d="M19.8333 6.31757L12.8334 0.80117C12.1917 0.285235 11.361 0 10.5 0C9.63912 0 8.80841 0.285235 8.16672 0.80117L1.16677 6.31757C0.796201 6.61549 0.50049 6.98096 0.299326 7.38964C0.0981609 7.79833 -0.00384129 8.24084 0.000110592 8.68773V17.8538C0.000110592 18.6882 0.368857 19.4885 1.02523 20.0785C1.6816 20.6685 2.57183 21 3.50009 21H17.5C18.4282 21 19.3185 20.6685 19.9748 20.0785C20.6312 19.4885 21 18.6882 21 17.8538V8.67725C21.0023 8.23212 20.8995 7.79162 20.6983 7.38486C20.4972 6.97809 20.2024 6.61432 19.8333 6.31757ZM12.8334 18.9025H8.16672V13.6588C8.16672 13.3806 8.28963 13.1139 8.50843 12.9172C8.72722 12.7205 9.02396 12.61 9.33338 12.61H11.6667C11.9761 12.61 12.2729 12.7205 12.4916 12.9172C12.7104 13.1139 12.8334 13.3806 12.8334 13.6588V18.9025ZM18.6666 17.8538C18.6666 18.1319 18.5437 18.3987 18.3249 18.5953C18.1061 18.792 17.8094 18.9025 17.5 18.9025H15.1667V13.6588C15.1667 12.8244 14.7979 12.0241 14.1416 11.4341C13.4852 10.844 12.5949 10.5125 11.6667 10.5125H9.33338C8.40513 10.5125 7.51489 10.844 6.85852 11.4341C6.20215 12.0241 5.8334 12.8244 5.8334 13.6588V18.9025H3.50009C3.19067 18.9025 2.89393 18.792 2.67513 18.5953C2.45634 18.3987 2.33343 18.1319 2.33343 17.8538V8.67725C2.33364 8.52834 2.36912 8.38118 2.43751 8.24556C2.50591 8.10994 2.60565 7.98897 2.73009 7.89069L9.73004 2.38478C9.94294 2.21664 10.2166 2.12392 10.5 2.12392C10.7834 2.12392 11.0571 2.21664 11.27 2.38478L18.27 7.89069C18.3944 7.98897 18.4942 8.10994 18.5626 8.24556C18.631 8.38118 18.6664 8.52834 18.6666 8.67725V17.8538Z" fill="black"/>
</svg>
