<svg width="21" height="21" viewBox="0 0 21 21" fill="none" xmlns="http://www.w3.org/2000/svg">
    <path d="M20.286 7.9275L18.3015 7.266L19.236 5.397C19.3307 5.20137 19.3624 4.98116 19.3267 4.76676C19.2909 4.55236 19.1896 4.35433 19.0365 4.2L16.8 1.9635C16.6448 1.80819 16.4449 1.70542 16.2283 1.66963C16.0117 1.63385 15.7894 1.66685 15.5925 1.764L13.7235 2.6985L13.062 0.714003C12.9921 0.507145 12.8595 0.32721 12.6826 0.199239C12.5057 0.0712674 12.2933 0.00162506 12.075 3.50021e-06H8.925C8.70487 -0.00056472 8.49014 0.0680634 8.31114 0.196188C8.13214 0.324312 7.99794 0.505451 7.9275 0.714003L7.266 2.6985L5.397 1.764C5.20137 1.66927 4.98116 1.63759 4.76676 1.67332C4.55236 1.70905 4.35433 1.81044 4.2 1.9635L1.9635 4.2C1.80819 4.35516 1.70542 4.55509 1.66963 4.77168C1.63385 4.98827 1.66685 5.21064 1.764 5.4075L2.6985 7.2765L0.714003 7.938C0.507145 8.00786 0.32721 8.14047 0.199239 8.31737C0.0712674 8.49428 0.00162506 8.70667 3.50021e-06 8.925V12.075C-0.00056472 12.2951 0.0680634 12.5099 0.196188 12.6889C0.324312 12.8679 0.505451 13.0021 0.714003 13.0725L2.6985 13.734L1.764 15.603C1.66927 15.7986 1.63759 16.0188 1.67332 16.2332C1.70905 16.4476 1.81044 16.6457 1.9635 16.8L4.2 19.0365C4.35516 19.1918 4.55509 19.2946 4.77168 19.3304C4.98827 19.3662 5.21064 19.3331 5.4075 19.236L7.2765 18.3015L7.938 20.286C8.00844 20.4946 8.14264 20.6757 8.32164 20.8038C8.50064 20.9319 8.71537 21.0006 8.9355 21H12.0855C12.3056 21.0006 12.5204 20.9319 12.6994 20.8038C12.8784 20.6757 13.0126 20.4946 13.083 20.286L13.7445 18.3015L15.6135 19.236C15.8079 19.3283 16.0259 19.3587 16.2382 19.323C16.4504 19.2874 16.6465 19.1873 16.8 19.0365L19.0365 16.8C19.1918 16.6448 19.2946 16.4449 19.3304 16.2283C19.3662 16.0117 19.3331 15.7894 19.236 15.5925L18.3015 13.7235L20.286 13.062C20.4929 12.9921 20.6728 12.8595 20.8008 12.6826C20.9287 12.5057 20.9984 12.2933 21 12.075V8.925C21.0006 8.70487 20.9319 8.49014 20.8038 8.31114C20.6757 8.13214 20.4946 7.99794 20.286 7.9275ZM18.9 11.319L17.64 11.739C17.3503 11.833 17.0844 11.9889 16.861 12.1959C16.6375 12.4028 16.4617 12.656 16.3458 12.9377C16.23 13.2194 16.1767 13.5229 16.1899 13.8272C16.2031 14.1315 16.2822 14.4293 16.422 14.7L17.0205 15.897L15.8655 17.052L14.7 16.422C14.4307 16.2878 14.1358 16.2131 13.8351 16.2029C13.5345 16.1926 13.2351 16.2471 12.9573 16.3626C12.6796 16.4781 12.4298 16.6519 12.2251 16.8723C12.0203 17.0927 11.8653 17.3545 11.7705 17.64L11.3505 18.9H9.681L9.261 17.64C9.16702 17.3503 9.01113 17.0844 8.80414 16.861C8.59716 16.6375 8.34404 16.4617 8.06234 16.3458C7.78064 16.23 7.47711 16.1767 7.17279 16.1899C6.86847 16.2031 6.57065 16.2822 6.3 16.422L5.103 17.0205L3.948 15.8655L4.578 14.7C4.71775 14.4293 4.79695 14.1315 4.8101 13.8272C4.82325 13.5229 4.77004 13.2194 4.65417 12.9377C4.53829 12.656 4.36252 12.4028 4.13904 12.1959C3.91557 11.9889 3.64974 11.833 3.36 11.739L2.1 11.319V9.681L3.36 9.261C3.64974 9.16702 3.91557 9.01113 4.13904 8.80414C4.36252 8.59716 4.53829 8.34404 4.65417 8.06234C4.77004 7.78064 4.82325 7.47711 4.8101 7.17279C4.79695 6.86847 4.71775 6.57065 4.578 6.3L3.9795 5.1345L5.1345 3.9795L6.3 4.578C6.57065 4.71775 6.86847 4.79695 7.17279 4.8101C7.47711 4.82325 7.78064 4.77004 8.06234 4.65417C8.34404 4.53829 8.59716 4.36252 8.80414 4.13904C9.01113 3.91557 9.16702 3.64974 9.261 3.36L9.681 2.1H11.319L11.739 3.36C11.833 3.64974 11.9889 3.91557 12.1959 4.13904C12.4028 4.36252 12.656 4.53829 12.9377 4.65417C13.2194 4.77004 13.5229 4.82325 13.8272 4.8101C14.1315 4.79695 14.4293 4.71775 14.7 4.578L15.897 3.9795L17.052 5.1345L16.422 6.3C16.2878 6.56927 16.2131 6.86422 16.2029 7.16487C16.1926 7.46553 16.2471 7.76489 16.3626 8.04267C16.4781 8.32045 16.6519 8.57017 16.8723 8.77493C17.0927 8.9797 17.3545 9.13472 17.64 9.2295L18.9 9.6495V11.319ZM10.5 6.3C9.66932 6.3 8.85729 6.54633 8.16661 7.00783C7.47592 7.46933 6.9376 8.12528 6.61971 8.89273C6.30182 9.66018 6.21865 10.5047 6.3807 11.3194C6.54276 12.1341 6.94277 12.8825 7.53015 13.4698C8.11753 14.0572 8.8659 14.4572 9.68062 14.6193C10.4953 14.7814 11.3398 14.6982 12.1073 14.3803C12.8747 14.0624 13.5307 13.5241 13.9922 12.8334C14.4537 12.1427 14.7 11.3307 14.7 10.5C14.7 9.38609 14.2575 8.31781 13.4698 7.53015C12.6822 6.7425 11.6139 6.3 10.5 6.3ZM10.5 12.6C10.0847 12.6 9.67865 12.4768 9.3333 12.2461C8.98796 12.0153 8.7188 11.6874 8.55985 11.3036C8.40091 10.9199 8.35932 10.4977 8.44035 10.0903C8.52138 9.68295 8.72139 9.30877 9.01508 9.01508C9.30877 8.72139 9.68295 8.52138 10.0903 8.44035C10.4977 8.35932 10.9199 8.40091 11.3036 8.55985C11.6874 8.7188 12.0153 8.98796 12.2461 9.3333C12.4768 9.67865 12.6 10.0847 12.6 10.5C12.6 11.057 12.3787 11.5911 11.9849 11.9849C11.5911 12.3787 11.057 12.6 10.5 12.6Z" fill="black"/>
</svg>
